<svg width="105" height="32" viewBox="0 0 105 32" fill="none" xmlns="http://www.w3.org/2000/svg">
<path fill-rule="evenodd" clip-rule="evenodd" d="M7.01095 9.16797L0.904163 19.7958C0.0681385 21.2537 0.570786 23.1132 2.02745 23.9513C3.48411 24.7895 5.31864 24.1882 6.15889 22.7327L9.66266 16.8033" fill="#FCBD02"/>
<path d="M7.01095 9.16797L0.904163 19.7958C0.0681385 21.2537 0.570786 23.1132 2.02745 23.9513C3.48411 24.7895 5.31864 24.1882 6.15889 22.7327L9.66266 16.8033" stroke="#FCBD02" stroke-linecap="round" stroke-linejoin="round"/>
<path fill-rule="evenodd" clip-rule="evenodd" d="M13.1431 22.8352L7.01999 12.2073C6.47697 11.2648 6.47776 10.1043 7.02207 9.16247C7.56638 8.22069 8.57159 7.64063 9.65936 7.64063H9.67569C10.7662 7.64062 11.7735 8.22357 12.3168 9.1691L18.4236 19.797C18.9652 20.7396 18.9634 21.8994 18.4189 22.8403C17.8743 23.7812 16.8696 24.3606 15.7825 24.3606C14.6933 24.3606 13.6869 23.779 13.1431 22.8352Z" fill="#0284FE" stroke="#0284FE" stroke-linecap="round" stroke-linejoin="round"/>
<ellipse cx="3.46473" cy="21.3866" rx="2.96473" ry="2.96473" fill="#03A846" stroke="#03A846"/>
<g clip-path="url(#clip0_19827_9838)">
<path d="M29.5426 9.00195C25.8762 9.00195 22.8281 11.9549 22.8281 15.5896C22.8281 19.2243 25.8762 22.1416 29.5426 22.1416C31.5205 22.1416 32.9831 21.4915 34.1484 20.2905C35.3494 19.0895 35.7061 17.4367 35.7061 16.1049C35.7061 15.6847 35.6744 15.2923 35.607 14.9713H29.5386V16.7549H33.8551C33.7243 17.7617 33.3993 18.5069 32.88 19.0261C32.2617 19.6444 31.2589 20.3579 29.5386 20.3579C26.879 20.3579 24.802 18.2175 24.802 15.5896C24.802 12.9617 26.879 10.8213 29.5386 10.8213C30.9656 10.8213 32.0358 11.3722 32.7849 12.1174L34.0493 10.853C32.9791 9.81451 31.5522 9.00195 29.5386 9.00195L29.5426 9.00195ZM40.5418 13.7068C38.2389 13.7068 36.3245 15.4905 36.3245 17.9876C36.3245 20.4847 38.2072 22.2684 40.5418 22.2684C42.8764 22.2684 44.7592 20.453 44.7592 17.9876C44.7592 15.5222 42.8447 13.7068 40.5418 13.7068ZM40.5418 20.5838C39.2774 20.5838 38.1715 19.5136 38.1715 17.9876C38.1715 16.4616 39.2734 15.3914 40.5418 15.3914C41.8102 15.3914 42.9121 16.4299 42.9121 17.9876C42.9121 19.5453 41.8102 20.5838 40.5418 20.5838ZM49.69 13.7068C47.3554 13.7068 45.4726 15.4905 45.4726 17.9876C45.4726 20.4847 47.3554 22.2684 49.69 22.2684C52.0246 22.2684 53.9074 20.453 53.9074 17.9876C53.9074 15.5222 52.0246 13.7068 49.69 13.7068ZM49.69 20.5838C48.4256 20.5838 47.3197 19.5136 47.3197 17.9876C47.3197 16.4616 48.4216 15.3914 49.69 15.3914C50.9584 15.3914 52.0603 16.4299 52.0603 17.9876C52.0603 19.5453 50.9901 20.5838 49.69 20.5838ZM58.8065 13.7068C56.6978 13.7068 54.7833 15.5579 54.7833 17.9559C54.7833 20.3539 56.6978 22.1733 58.8065 22.1733C59.8132 22.1733 60.5901 21.7174 61.0142 21.1982H61.0777V21.8165C61.0777 23.4377 60.2334 24.3137 58.8382 24.3137C57.7046 24.3137 57.0228 23.5011 56.7295 22.8194L55.1084 23.5011C55.5642 24.6347 56.7969 25.9982 58.8382 25.9982C61.0103 25.9982 62.8296 24.7021 62.8296 21.5866V13.9962H61.0777V14.6779H61.0142C60.5941 14.1587 59.8132 13.7029 58.8065 13.7029M58.969 20.5165C57.7046 20.5165 56.6344 19.4463 56.6344 17.9519C56.6344 16.4576 57.7046 15.3557 58.969 15.3557C60.2334 15.3557 61.2085 16.4576 61.2085 17.9519C61.2085 19.4463 60.2334 20.5165 58.969 20.5165ZM64.1931 9.5212H66.0442V22.0425H64.1931V9.5212ZM71.0067 13.7068C68.7989 13.7068 66.9518 15.4271 66.9518 17.9876C66.9518 20.3896 68.7672 22.2684 71.2009 22.2684C73.1788 22.2684 74.3164 21.0674 74.7682 20.3856L73.3096 19.4106C72.822 20.124 72.1403 20.5799 71.2009 20.5799C70.2615 20.5799 69.548 20.1597 69.1239 19.2837L74.8673 16.9135L74.6731 16.4259C74.3164 15.4865 73.2145 13.6989 71.0067 13.6989M68.7989 17.8529C68.7355 16.2 70.095 15.3557 71.0384 15.3557C71.7836 15.3557 72.4336 15.7125 72.6278 16.2634L68.7989 17.8529ZM78.1096 21.8443L82.3904 10.4566H84.0432L88.324 21.8443H86.7029L85.601 18.7605H80.8326L79.7307 21.8443H78.1096ZM81.3202 17.401H85.1174L83.2663 12.276H83.2029L81.3202 17.401ZM89.8183 20.9049C89.1049 20.0923 88.7481 19.1212 88.7481 17.9519C88.7481 16.7827 89.1049 15.8433 89.8183 14.999C90.5635 14.1865 91.4078 13.798 92.4462 13.798C93.0289 13.798 93.5481 13.9288 94.004 14.1547C94.4915 14.4124 94.8482 14.7057 95.1059 15.1298H95.1693L95.1059 14.0596V10.4606H96.5645V21.8482H95.1693V20.7781H95.1059C94.8482 21.1665 94.4875 21.4915 94.004 21.7531C93.5204 22.0147 92.9972 22.1099 92.4462 22.1099C91.4078 22.1099 90.5318 21.7214 89.8183 20.9089M94.4241 20.0012C94.9117 19.4819 95.1376 18.8002 95.1376 17.9559C95.1376 17.1116 94.9117 16.4616 94.4241 15.9463C93.9683 15.4271 93.3856 15.1694 92.6722 15.1694C91.9587 15.1694 91.376 15.4271 90.9202 15.9463C90.4327 16.4656 90.2068 17.1473 90.2068 17.9559C90.2068 18.7645 90.4327 19.4502 90.9202 19.9655C91.4078 20.4808 91.9904 20.7424 92.6722 20.7424C93.3856 20.7741 93.9683 20.5165 94.4241 19.9972M103.315 21.3924C102.732 21.8482 101.983 22.1059 101.075 22.1059C100.298 22.1059 99.6165 21.9117 98.9982 21.4876C98.4155 21.0674 97.9914 20.5482 97.7338 19.8664L99.0299 19.3155C99.2241 19.7713 99.4857 20.1597 99.8742 20.4174C100.231 20.675 100.651 20.8058 101.075 20.8058C101.531 20.8058 101.919 20.7067 102.244 20.5125C102.569 20.3183 102.7 20.0567 102.7 19.799C102.7 19.3115 102.312 18.9231 101.567 18.6971L100.235 18.3721C98.7089 17.9837 97.9637 17.2702 97.9637 16.1643C97.9637 15.4509 98.257 14.8999 98.8397 14.4441C99.4223 14.0239 100.171 13.794 101.047 13.794C101.705 13.7901 102.355 13.9566 102.93 14.2816C103.481 14.6066 103.87 15.0585 104.099 15.6134L102.803 16.1643C102.641 15.8393 102.415 15.5817 102.09 15.3874C101.765 15.1932 101.376 15.0941 100.956 15.0941C100.568 15.0941 100.243 15.1932 99.9178 15.3874C99.6245 15.5817 99.462 15.8076 99.462 16.1009C99.462 16.5567 99.8821 16.8778 100.726 17.0403L101.896 17.3336C103.453 17.7221 104.199 18.5029 104.199 19.6682C104.23 20.35 103.905 20.9326 103.323 21.3885" fill="#757575"/>
</g>
<defs>
<clipPath id="clip0_19827_9838">
<rect width="81.3726" height="19.9963" fill="white" transform="translate(22.8281 6.00195)"/>
</clipPath>
</defs>
</svg>
