<svg width="32" height="32" viewBox="0 0 32 32" fill="none" xmlns="http://www.w3.org/2000/svg">
<path d="M0 16C0 24.8366 7.16344 32 16 32C24.8366 32 32 24.8366 32 16C32 7.16344 24.8366 0 16 0C7.16344 0 0 7.16344 0 16Z" fill="white" fill-opacity="0.16"/>
<path d="M16 9C13.799 9 13.527 9.009 12.685 9.048C11.845 9.087 11.268 9.222 10.76 9.42C10.235 9.624 9.789 9.898 9.344 10.344C8.898 10.789 8.624 11.235 8.42 11.76C8.222 12.268 8.087 12.845 8.048 13.685C8.009 14.527 8 14.799 8 17C8 19.201 8.009 19.473 8.048 20.315C8.087 21.155 8.222 21.732 8.42 22.24C8.624 22.765 8.898 23.211 9.344 23.656C9.789 24.102 10.235 24.376 10.76 24.58C11.268 24.778 11.845 24.913 12.685 24.952C13.527 24.991 13.799 25 16 25C18.201 25 18.473 24.991 19.315 24.952C20.155 24.913 20.732 24.778 21.24 24.58C21.765 24.376 22.211 24.102 22.656 23.656C23.102 23.211 23.376 22.765 23.58 22.24C23.778 21.732 23.913 21.155 23.952 20.315C23.991 19.473 24 19.201 24 17C24 14.799 23.991 14.527 23.952 13.685C23.913 12.845 23.778 12.268 23.58 11.76C23.376 11.235 23.102 10.789 22.656 10.344C22.211 9.898 21.765 9.624 21.24 9.42C20.732 9.222 20.155 9.087 19.315 9.048C18.473 9.009 18.201 9 16 9ZM16 10.441C18.163 10.441 18.417 10.449 19.249 10.488C20.018 10.524 20.436 10.655 20.715 10.764C21.083 10.908 21.346 11.08 21.621 11.355C21.897 11.63 22.068 11.893 22.212 12.261C22.321 12.54 22.452 12.958 22.488 13.727C22.527 14.559 22.535 14.813 22.535 16.976C22.535 19.139 22.527 19.393 22.485 20.225C22.446 20.994 22.315 21.412 22.206 21.691C22.058 22.059 21.89 22.322 21.615 22.597C21.34 22.872 21.077 23.044 20.709 23.188C20.43 23.297 20.009 23.428 19.24 23.464C18.405 23.503 18.154 23.511 15.988 23.511C13.822 23.511 13.571 23.503 12.736 23.461C11.967 23.422 11.546 23.291 11.267 23.182C10.896 23.034 10.633 22.866 10.358 22.591C10.083 22.316 9.915 22.053 9.768 21.685C9.659 21.406 9.528 20.985 9.492 20.216C9.457 19.378 9.448 19.13 9.448 16.964C9.448 14.798 9.457 14.547 9.495 13.712C9.534 12.943 9.665 12.522 9.774 12.243C9.918 11.872 10.09 11.609 10.365 11.334C10.64 11.059 10.903 10.891 11.271 10.744C11.55 10.635 11.968 10.504 12.737 10.465C13.572 10.43 13.823 10.421 15.986 10.421L16 10.441ZM16 12.892C13.699 12.892 11.832 14.759 11.832 17.06C11.832 19.361 13.699 21.228 16 21.228C18.301 21.228 20.168 19.361 20.168 17.06C20.168 14.759 18.301 12.892 16 12.892ZM16 19.786C14.495 19.786 13.274 18.565 13.274 17.06C13.274 15.555 14.495 14.334 16 14.334C17.505 14.334 18.726 15.555 18.726 17.06C18.726 18.565 17.505 19.786 16 19.786ZM21.102 12.728C21.102 13.258 20.673 13.687 20.143 13.687C19.613 13.687 19.184 13.258 19.184 12.728C19.184 12.198 19.613 11.769 20.143 11.769C20.673 11.769 21.102 12.198 21.102 12.728Z" fill="white"/>
</svg>
