<svg width="32" height="32" viewBox="0 0 32 32" fill="none" xmlns="http://www.w3.org/2000/svg">
<path d="M0 16C0 24.8366 7.16344 32 16 32C24.8366 32 32 24.8366 32 16C32 7.16344 24.8366 0 16 0C7.16344 0 0 7.16344 0 16Z" fill="white" fill-opacity="0.16"/>
<path d="M10.5 13H13V22H10.5V13ZM11.75 12C10.925 12 10.25 11.325 10.25 10.5C10.25 9.675 10.925 9 11.75 9C12.575 9 13.25 9.675 13.25 10.5C13.25 11.325 12.575 12 11.75 12Z" fill="white"/>
<path d="M15 13H17.4V14.1H17.435C17.77 13.48 18.57 12.825 19.77 12.825C22.3 12.825 22.75 14.475 22.75 16.625V22H20.25V17.125C20.25 16.175 20.235 14.95 18.925 14.95C17.595 14.95 17.395 15.985 17.395 17.055V22H14.9V13H15Z" fill="white"/>
</svg>
