<svg width="41" height="32" viewBox="0 0 41 32" fill="none" xmlns="http://www.w3.org/2000/svg">
<path d="M24.4329 23.2567H16.5667V8.74272H24.4329V23.2567Z" fill="#6C6BBD"/>
<path d="M17.0663 16C17.0663 13.0558 18.409 10.4331 20.4998 8.74299C18.9708 7.50708 17.0412 6.76941 14.944 6.76941C9.97916 6.76941 5.95459 10.902 5.95459 16C5.95459 21.098 9.97916 25.2306 14.944 25.2306C17.0412 25.2306 18.9708 24.4929 20.4998 23.257C18.409 21.5669 17.0663 18.9442 17.0663 16Z" fill="#EB001B"/>
<path d="M35.0454 16C35.0454 21.098 31.0209 25.2306 26.056 25.2306C23.9589 25.2306 22.0294 24.4929 20.4998 23.257C22.5913 21.5669 23.9337 18.9442 23.9337 16C23.9337 13.0558 22.5913 10.4331 20.4998 8.74299C22.0294 7.50708 23.9589 6.76941 26.056 6.76941C31.0209 6.76941 35.0454 10.902 35.0454 16Z" fill="#0099DF"/>
</svg>
