<svg width="65" height="32" viewBox="0 0 65 32" fill="none" xmlns="http://www.w3.org/2000/svg">
<path d="M2.11904 17.6949C2.11904 18.4436 2.28359 19.0192 2.49844 19.367C2.78012 19.8225 3.20048 20.0158 3.62874 20.0158C4.18132 20.0158 4.68647 19.8786 5.66084 18.5313C6.4412 17.4513 7.36096 15.9358 7.97964 14.9852L9.0273 13.3749C9.75521 12.2568 10.5974 11.0137 11.5638 10.1715C12.3521 9.48384 13.2029 9.10156 14.0594 9.10156C15.4965 9.10156 16.8661 9.93438 17.9138 11.4965C19.0606 13.2074 19.6175 15.3624 19.6175 17.5864C19.6175 18.9085 19.3566 19.88 18.9133 20.6474C18.485 21.3897 17.6501 22.1313 16.2453 22.1313V20.0151C17.4481 20.0151 17.7478 18.9099 17.7478 17.6453C17.7478 15.8431 17.3274 13.8426 16.4019 12.4134C15.7451 11.3995 14.8937 10.7801 13.9566 10.7801C12.9435 10.7801 12.1286 11.544 11.2125 12.9064C10.7253 13.6299 10.2251 14.5123 9.66395 15.5076L9.04599 16.6026C7.80431 18.8043 7.48958 19.3052 6.86946 20.1329C5.78156 21.5816 4.85245 22.1313 3.62946 22.1313C2.17868 22.1313 1.26108 21.5032 0.692694 20.5562C0.227784 19.7852 0 18.7727 0 17.6187L2.11904 17.6949Z" fill="#0081FB"/>
<path d="M1.67188 11.646C2.64337 10.1485 4.04529 9.10156 5.65343 9.10156C6.58469 9.10156 7.5102 9.37749 8.47667 10.1665C9.53439 11.0295 10.6611 12.4501 12.0673 14.7926L12.5718 15.6333C13.789 17.6611 14.481 18.7037 14.8862 19.1959C15.4072 19.8275 15.7722 20.0158 16.2465 20.0158C17.4494 20.0158 17.749 18.9107 17.749 17.646L19.618 17.5871C19.618 18.9092 19.3571 19.8807 18.9138 20.6481C18.4855 21.3904 17.6506 22.132 16.2458 22.132C15.3727 22.132 14.5988 21.9423 13.7437 21.1353C13.0862 20.5159 12.3174 19.4158 11.726 18.4264L9.96696 15.4874C9.08457 14.0122 8.27475 12.9128 7.80553 12.4149C7.3011 11.8795 6.65367 11.2328 5.61894 11.2328C4.78182 11.2328 4.07116 11.8199 3.47619 12.7188L1.67188 11.646Z" fill="url(#paint0_linear_19827_9831)"/>
<path d="M5.61772 11.2321C4.7806 11.2321 4.06994 11.8192 3.47497 12.7181C2.63353 13.9878 2.11904 15.8783 2.11904 17.6949C2.11904 18.4436 2.28359 19.0192 2.49844 19.367L0.691976 20.5569C0.227784 19.7852 0 18.7727 0 17.6187C0 15.5212 0.575569 13.3346 1.67066 11.646C2.64216 10.1485 4.04407 9.10156 5.65222 9.10156L5.61772 11.2321Z" fill="url(#paint1_linear_19827_9831)"/>
<path d="M23.7351 9.51367H26.1861L30.3538 17.0528L34.5222 9.51367H36.92V21.9024H34.9202V12.4073L31.2649 18.9822H29.3887L25.7341 12.4073V21.9017H23.7344V9.51367H23.7351ZM43.1852 14.1326C41.7509 14.1326 40.8879 15.2119 40.681 16.5484H45.5478C45.4472 15.1716 44.6532 14.1326 43.1852 14.1326ZM38.6984 17.3094C38.6984 14.4976 40.5157 12.4512 43.2196 12.4512C45.8798 12.4512 47.4678 14.4718 47.4678 17.4595V18.0085H40.681C40.9217 19.4622 41.8867 20.4416 43.4417 20.4416C44.6826 20.4416 45.458 20.0629 46.1938 19.3702L47.2558 20.6708C46.2549 21.5913 44.9823 22.1216 43.3705 22.1216C40.4431 22.123 38.6984 19.9882 38.6984 17.3094ZM49.8922 14.3101H48.052V12.6732H49.8922V9.96565H51.8216V12.6732H54.6175V14.3101H51.8216V18.4598C51.8216 19.8768 52.2743 20.3798 53.388 20.3798C53.8961 20.3798 54.1878 20.3359 54.6182 20.2648V21.8845C54.0822 22.0361 53.5705 22.1058 53.0165 22.1058C50.9341 22.1058 49.8929 20.9676 49.8929 18.6904L49.8922 14.3101ZM62.7408 15.9024C62.3535 14.9244 61.4891 14.2037 60.2187 14.2037C58.5681 14.2037 57.5111 15.375 57.5111 17.2828C57.5111 19.1431 58.4841 20.3712 60.1396 20.3712C61.441 20.3712 62.3701 19.6138 62.7408 18.6718V15.9024ZM64.6702 21.9017H62.7768V20.6097C62.2472 21.3707 61.2843 22.123 59.7243 22.123C57.2151 22.123 55.5387 20.0227 55.5387 17.2828C55.5387 14.517 57.2561 12.4512 59.8307 12.4512C61.104 12.4512 62.102 12.9599 62.7768 13.8588V12.6732H64.6702V21.9017Z" fill="#192830"/>
<defs>
<linearGradient id="paint0_linear_19827_9831" x1="4.25367" y1="15.2784" x2="17.7608" y2="15.9606" gradientUnits="userSpaceOnUse">
<stop stop-color="#0064E1"/>
<stop offset="0.4" stop-color="#0064E1"/>
<stop offset="0.83" stop-color="#0073EE"/>
<stop offset="1" stop-color="#0082FB"/>
</linearGradient>
<linearGradient id="paint1_linear_19827_9831" x1="2.82596" y1="18.5842" x2="2.82596" y2="13.6044" gradientUnits="userSpaceOnUse">
<stop stop-color="#0082FB"/>
<stop offset="1" stop-color="#0064E0"/>
</linearGradient>
</defs>
</svg>
