<svg width="78" height="30" viewBox="0 0 78 30" fill="none" xmlns="http://www.w3.org/2000/svg">
<path d="M19.8586 20.0292V16.7928H21.2518C23.8436 16.7928 25.4014 15.3456 25.4014 13.1826C25.4014 11.1447 23.8226 9.96195 21.5518 9.96195H18.1811V20.0292H19.8586ZM21.4768 11.4592C22.8095 11.4592 23.7134 12.0736 23.7134 13.3774C23.7134 14.5759 22.7096 15.2956 21.3913 15.2956H19.8586V11.4592H21.4768ZM48.6816 16.5086C48.6816 14.4259 47.1094 12.8524 45.0267 12.8524C43.0191 12.8498 41.389 14.4746 41.3864 16.4823V16.5388C41.3864 18.636 42.8994 20.1634 45.0267 20.1634C47.016 20.1924 48.6527 18.6044 48.6816 16.6151V16.5073V16.5086ZM42.9743 16.5086C42.9743 15.31 43.8585 14.3457 45.0267 14.3812C46.3174 14.4193 47.1212 15.3179 47.0936 16.5086C47.066 17.6992 46.195 18.636 45.0267 18.636C43.8585 18.636 42.973 17.7071 42.973 16.5086H42.9743ZM64.4719 16.9335C64.5087 16.6901 64.5245 16.4454 64.5166 16.1994C64.5166 14.2365 63.0194 12.8577 61.117 12.8577C59.1383 12.834 57.5161 14.4167 57.4911 16.3954V16.4836C57.4911 18.6254 58.9146 20.1674 61.071 20.1674C62.5248 20.1674 63.7378 19.478 64.2469 18.5202L63.0037 17.8308C62.6747 18.3702 61.9709 18.7517 61.1762 18.7517C60.0671 18.7517 59.2883 18.0768 59.1238 16.9388L64.4719 16.9335ZM59.2093 15.7192C59.4198 14.7904 60.1092 14.222 61.067 14.222C62.0248 14.222 62.7774 14.8364 62.8655 15.7192H59.2093ZM39.6339 12.9866L37.6855 18.0058L35.9475 12.9866H34.1359L36.7422 20.0279L35.6633 22.5H37.3868L41.3561 12.9866H39.6339ZM77.7309 13.0169C77.5073 12.9537 77.2744 12.9235 77.0415 12.9261C76.3521 12.9261 75.5733 13.3208 75.2444 13.9904V12.9866H73.6564V20.0279H75.2444V16.2757C75.2444 14.9719 76.1127 14.4338 77.0113 14.4338C77.2481 14.4286 77.4849 14.4549 77.7151 14.5088L77.7309 13.0261V13.0169ZM72.4868 16.9335C72.5236 16.6901 72.5394 16.4454 72.5315 16.1994C72.5315 14.2365 71.0343 12.8577 69.1319 12.8577C67.1532 12.834 65.531 14.4167 65.506 16.3954V16.4836C65.506 18.6254 66.9295 20.1674 69.0859 20.1674C70.5331 20.1674 71.7527 19.478 72.2631 18.5202L71.0185 17.8308C70.6896 18.3702 69.9857 18.7517 69.1911 18.7517C68.0833 18.7517 67.3032 18.0768 67.1387 16.9388L72.4868 16.9335ZM67.2242 15.7192C67.4347 14.7904 68.1241 14.222 69.0819 14.222C70.0397 14.222 70.7922 14.8364 70.8804 15.7192H67.2242ZM31.6191 16.4928C31.6493 17.6979 30.6968 18.6991 29.4917 18.7294H29.3864C28.1576 18.7294 27.334 17.7703 27.334 16.4928C27.3446 15.2785 28.3221 14.2944 29.5364 14.2759C30.7797 14.2759 31.6191 15.235 31.6191 16.4928ZM56.4123 16.0126C56.4123 14.0496 55.4532 12.855 53.656 12.855C52.7114 12.855 51.8431 13.2603 51.3642 13.9076V12.9866H49.7604V20.0279H51.3642V16.2126C51.3642 15.0285 52.218 14.2799 53.2363 14.2799C54.2546 14.2799 54.7941 14.9693 54.7941 16.1376V20.0332H56.4123V16.0126ZM31.6191 12.9866V13.9076C31.1546 13.2932 30.4047 12.855 29.2812 12.855C27.334 12.855 25.7158 14.5785 25.7158 16.6007C25.7158 18.6228 27.1091 20.1661 28.9812 20.1661C30.1955 20.1661 31.1086 19.7319 31.6125 19.0136V20.0319H33.1847V12.9866H31.6191Z" fill="white"/>
<path d="M7.51702 22.196H7.43018C7.4065 22.1921 7.38282 22.1855 7.35914 22.1855C6.95129 22.1737 6.54739 22.1276 6.14744 22.0447C5.51988 21.9145 4.91731 21.7106 4.34238 21.4224C3.46616 20.9817 2.70572 20.3962 2.05974 19.6569C1.63742 19.1727 1.2822 18.6425 1.00723 18.0636C0.459926 16.9098 0.200745 15.6942 0.282314 14.4127C0.311258 13.9575 0.374409 13.5076 0.486239 13.0655C0.667797 12.3458 0.951975 11.6696 1.33614 11.0342C1.67689 10.4697 2.09132 9.96323 2.56495 9.5067C3.032 9.05544 3.55957 8.68442 4.13056 8.37788C5.11334 7.85031 6.16191 7.56087 7.27362 7.50824C7.8775 7.4793 8.47612 7.52666 9.06947 7.64902C9.89832 7.82137 10.6732 8.12659 11.4008 8.55944C12.1599 9.01202 12.8164 9.58301 13.365 10.2763C14.1347 11.2499 14.6202 12.3511 14.8412 13.5733C14.9701 14.2838 14.9872 14.9969 14.9057 15.7099C14.8359 16.3243 14.682 16.9203 14.4596 17.5005C14.2426 18.0649 13.9584 18.5912 13.6124 19.0832C13.269 19.57 12.8717 20.0134 12.4165 20.4028C11.5087 21.1791 10.4772 21.7145 9.31418 21.9895C8.75635 22.1224 8.19194 22.196 7.61832 22.1868C7.58412 22.1868 7.55122 22.1842 7.51833 22.1974L7.51702 22.196ZM7.61701 9.19752C4.45947 9.19358 1.98344 11.7551 1.96765 14.7969C1.95055 17.9965 4.48184 20.4555 7.51702 20.4962C10.7653 20.5397 13.219 17.9834 13.2598 14.9561C13.3058 11.5433 10.5785 9.19489 7.61701 9.19884V9.19752Z" fill="white"/>
</svg>
