<svg width="52" height="30" viewBox="0 0 52 30" fill="none" xmlns="http://www.w3.org/2000/svg">
<path d="M9.19202 8.90501C8.55505 8.46869 7.72385 8.25001 6.69843 8.25001H2.72856C2.41421 8.25001 2.24054 8.40665 2.20755 8.71964L0.594906 18.8061C0.578145 18.9051 0.603021 18.9957 0.669304 19.0781C0.735208 19.1606 0.8181 19.2017 0.917373 19.2017H2.80304C3.13377 19.2017 3.31556 19.0454 3.34893 18.732L3.79547 16.0127C3.81177 15.8809 3.86994 15.7738 3.96921 15.6913C4.06841 15.6089 4.19248 15.555 4.34136 15.5304C4.49023 15.5059 4.63061 15.4935 4.76317 15.4935C4.89536 15.4935 5.05242 15.5019 5.23466 15.5183C5.41645 15.5347 5.53233 15.5428 5.58201 15.5428C7.00445 15.5428 8.12095 15.1434 8.93159 14.3438C9.74186 13.5446 10.1474 12.4364 10.1474 11.0186C10.1474 10.0463 9.82869 9.342 9.19202 8.90501ZM7.1452 11.9337C7.06223 12.5106 6.84746 12.8895 6.50011 13.0708C6.1527 13.2524 5.65648 13.3428 5.01147 13.3428L4.19264 13.3674L4.61453 10.7221C4.64744 10.541 4.75491 10.4503 4.937 10.4503H5.40856C6.06988 10.4503 6.54987 10.5453 6.84761 10.7345C7.1452 10.9242 7.24448 11.324 7.1452 11.9337Z" fill="white"/>
<path d="M51.0861 8.25H49.2503C49.0678 8.25 48.9604 8.34068 48.9277 8.52211L47.3149 18.8065L47.29 18.8559C47.29 18.9388 47.3231 19.0167 47.3894 19.0909C47.4552 19.1649 47.5383 19.202 47.6374 19.202H49.2753C49.589 19.202 49.7627 19.0458 49.7963 18.7324L51.409 8.62102V8.59647C51.4089 8.36562 51.3011 8.25 51.0861 8.25Z" fill="white"/>
<path d="M28.9056 12.2319C28.9056 12.1497 28.8724 12.0712 28.8066 11.9973C28.7402 11.9231 28.6658 11.8858 28.5833 11.8858H26.6728C26.4905 11.8858 26.3416 11.9686 26.226 12.133L23.5961 15.9897L22.5044 12.2815C22.4213 12.018 22.2395 11.8858 21.9586 11.8858H20.0974C20.0145 11.8858 19.9401 11.923 19.8743 11.9973C19.808 12.0712 19.7751 12.1498 19.7751 12.2319C19.7751 12.2651 19.9364 12.7511 20.2589 13.6905C20.5813 14.6303 20.9287 15.6439 21.3009 16.7317C21.6731 17.8193 21.8673 18.3965 21.8839 18.4619C20.5275 20.3081 19.8495 21.2969 19.8495 21.4285C19.8495 21.643 19.9569 21.75 20.1721 21.75H22.0826C22.2644 21.75 22.4132 21.6678 22.5292 21.5029L28.8563 12.4049C28.8891 12.3722 28.9056 12.3149 28.9056 12.2319Z" fill="white"/>
<path d="M46.6949 11.8841H44.8091C44.5773 11.8841 44.4372 12.1561 44.3875 12.7001C43.9569 12.041 43.1718 11.711 42.0302 11.711C40.8392 11.711 39.826 12.1561 38.9908 13.0461C38.1554 13.9361 37.7379 14.983 37.7379 16.186C37.7379 17.1586 38.0232 17.9331 38.5937 18.5098C39.1644 19.087 39.9293 19.3751 40.8891 19.3751C41.3687 19.3751 41.8566 19.276 42.3528 19.0784C42.8491 18.8806 43.2374 18.6171 43.5192 18.2873C43.5192 18.3039 43.5023 18.3778 43.4696 18.5095C43.4361 18.6416 43.4198 18.7408 43.4198 18.8062C43.4198 19.0702 43.5271 19.2017 43.7424 19.2017H45.4546C45.7685 19.2017 45.9507 19.0454 46.0001 18.7321L47.0176 12.2796C47.0339 12.1806 47.0091 12.0901 46.9431 12.0076C46.8766 11.9254 46.7941 11.8841 46.6949 11.8841ZM43.457 16.7545C43.0352 17.1666 42.5264 17.3725 41.931 17.3725C41.4511 17.3725 41.0627 17.2409 40.7649 16.977C40.467 16.7139 40.3181 16.3513 40.3181 15.8892C40.3181 15.2799 40.5249 14.7644 40.9386 14.3442C41.3515 13.9239 41.8648 13.7138 42.4768 13.7138C42.9396 13.7138 43.3243 13.8497 43.6306 14.1216C43.9363 14.3936 44.0898 14.7685 44.0898 15.2466C44.0896 15.8399 43.8787 16.3427 43.457 16.7545Z" fill="white"/>
<path d="M18.5089 11.8841H16.6231C16.3912 11.8841 16.2509 12.1561 16.2012 12.7001C15.7546 12.041 14.9688 11.711 13.8441 11.711C12.6531 11.711 11.6398 12.1561 10.8046 13.0461C9.96915 13.9361 9.55166 14.983 9.55166 16.186C9.55166 17.1586 9.83704 17.9331 10.4077 18.5098C10.9784 19.087 11.7433 19.3751 12.7028 19.3751C13.1657 19.3751 13.6457 19.276 14.1418 19.0784C14.638 18.8806 15.0351 18.6171 15.3328 18.2873C15.2664 18.4849 15.2335 18.658 15.2335 18.8062C15.2335 19.0702 15.341 19.2017 15.5561 19.2017H17.2681C17.5821 19.2017 17.7643 19.0454 17.8139 18.7321L18.8312 12.2796C18.8475 12.1806 18.8228 12.0901 18.7568 12.0076C18.6906 11.9254 18.608 11.8841 18.5089 11.8841ZM15.2709 16.7668C14.849 17.1711 14.3319 17.3725 13.7202 17.3725C13.2402 17.3725 12.8557 17.2409 12.5664 16.977C12.2768 16.7139 12.1322 16.3513 12.1322 15.8892C12.1322 15.2799 12.3388 14.7644 12.7525 14.3442C13.1658 13.9239 13.6786 13.7137 14.2908 13.7137C14.7538 13.7137 15.1383 13.8497 15.4447 14.1216C15.7504 14.3936 15.9036 14.7685 15.9036 15.2466C15.9036 15.8565 15.6927 16.3634 15.2709 16.7668Z" fill="white"/>
<path d="M37.3784 8.905C36.7415 8.46869 35.9105 8.25 34.8849 8.25H30.9397C30.6089 8.25 30.4268 8.40665 30.3939 8.71964L28.7811 18.8061C28.7644 18.9051 28.7892 18.9957 28.8556 19.0781C28.9212 19.1606 29.0043 19.2016 29.1036 19.2016H31.1381C31.3365 19.2016 31.4688 19.0946 31.5352 18.8803L31.9818 16.0127C31.9982 15.8809 32.0561 15.7738 32.1555 15.6913C32.2548 15.6089 32.3787 15.555 32.5277 15.5304C32.6765 15.5059 32.8168 15.4935 32.9495 15.4935C33.0817 15.4935 33.2387 15.5019 33.4208 15.5183C33.6027 15.5347 33.7189 15.5428 33.7682 15.5428C35.1909 15.5428 36.3072 15.1434 37.1178 14.3438C37.9284 13.5446 38.3336 12.4364 38.3336 11.0186C38.3337 10.0463 38.0151 9.34192 37.3784 8.905ZM34.8353 12.9718C34.4713 13.219 33.9254 13.3426 33.1978 13.3426L32.4037 13.3673L32.8255 10.722C32.8582 10.5409 32.9658 10.4501 33.1479 10.4501H33.5944C33.9584 10.4501 34.2478 10.4666 34.4631 10.4995C34.6778 10.5326 34.8849 10.6354 35.0834 10.8084C35.282 10.9815 35.3811 11.233 35.3811 11.5625C35.3811 12.2549 35.1989 12.7244 34.8353 12.9718Z" fill="white"/>
</svg>
