<svg width="24" height="24" viewBox="0 0 24 24" fill="none" xmlns="http://www.w3.org/2000/svg">
<g>
<path d="M1.61572 17.572V17.5729C1.62861 18.0478 1.63236 18.5256 1.71262 18.998C1.79745 19.4975 1.91888 19.9844 2.15051 20.4381C2.46365 21.0519 2.89365 21.5701 3.43634 21.9934C3.82599 22.2974 4.25183 22.5386 4.72299 22.6908C5.40998 22.9125 6.11902 22.9973 6.83845 23.0014C7.28715 23.0044 7.73545 23.0156 8.18457 23.0135C11.4449 22.9998 14.7048 23.0372 17.9651 22.9935C18.3976 22.9877 18.8234 22.9349 19.248 22.8571C20.0618 22.7083 20.7808 22.361 21.3963 21.8121C22.1136 21.1725 22.5973 20.3895 22.8156 19.4451C22.9587 18.8275 22.9944 18.2008 23.0002 17.572V17.4465C23.0002 17.3978 22.9815 6.76356 22.9799 6.623C22.9749 6.23667 22.9466 5.85367 22.8742 5.47358C22.7861 5.01073 22.6617 4.55953 22.4401 4.14076C22.206 3.69829 21.9128 3.30032 21.5501 2.95266C20.9946 2.41995 20.3533 2.04319 19.6073 1.84399C18.9332 1.66434 18.2453 1.62442 17.5529 1.62484C17.5517 1.62484 17.5492 1.61777 17.5492 1.61444H7.06384C7.06384 1.61818 7.06384 1.62151 7.06342 1.62484C6.67044 1.63191 6.27663 1.629 5.88531 1.67765C5.45698 1.73088 5.03239 1.81114 4.62693 1.96085C3.98818 2.19705 3.43301 2.56509 2.95893 3.05663C2.42165 3.61346 2.04322 4.2572 1.84236 5.00657C1.66271 5.67568 1.62362 6.35768 1.62279 7.04468" fill="#FFFC00"/>
<path d="M12.4052 19.6708C12.3607 19.6708 12.3183 19.6691 12.2862 19.6675C12.2609 19.6696 12.2343 19.6708 12.2076 19.6708C11.2745 19.6708 10.6507 19.2296 10.1001 18.8403C9.70545 18.5617 9.33325 18.2985 8.89744 18.2257C8.68327 18.1904 8.47036 18.1721 8.26451 18.1721C7.89356 18.1721 7.6008 18.2295 7.38664 18.2715C7.25481 18.2972 7.14128 18.3193 7.05354 18.3193C6.96579 18.3193 6.84977 18.2989 6.80361 18.14C6.7666 18.0149 6.7404 17.8934 6.71462 17.7762C6.65057 17.4838 6.60441 17.3054 6.49504 17.2888C5.32483 17.1083 4.63326 16.8422 4.49561 16.5203C4.48106 16.4866 4.47316 16.4525 4.47149 16.4188C4.46609 16.3228 4.53387 16.2388 4.62869 16.223C5.55812 16.0699 6.38443 15.5788 7.08473 14.7625C7.62742 14.1304 7.89398 13.527 7.92226 13.46C7.92351 13.4571 7.92517 13.4538 7.92642 13.4509C8.06157 13.1768 8.08818 12.9402 8.00668 12.7472C7.85572 12.3917 7.3567 12.2332 7.02609 12.1284C6.94375 12.1027 6.8664 12.0777 6.80444 12.0532C6.51168 11.9376 6.0297 11.693 6.09416 11.3558C6.14074 11.1096 6.46635 10.9383 6.72917 10.9383C6.80236 10.9383 6.86682 10.9512 6.9213 10.9765C7.21863 11.1158 7.48603 11.1861 7.71558 11.1861C8.00169 11.1861 8.13975 11.0772 8.17302 11.0464C8.1647 10.8938 8.15472 10.7324 8.14516 10.5802V10.5781C8.0782 9.51064 7.9942 8.18157 8.33437 7.41972C9.35155 5.13876 11.509 4.9616 12.1457 4.9616C12.1627 4.9616 12.4231 4.95911 12.4231 4.95911C12.4347 4.95911 12.4476 4.95911 12.4609 4.95911C13.0992 4.95911 15.2613 5.13668 16.2793 7.41889C16.619 8.18157 16.5354 9.51106 16.4681 10.5802L16.4648 10.6314C16.4556 10.7765 16.4469 10.9137 16.4398 11.0472C16.4714 11.0763 16.5974 11.1761 16.8548 11.1861C17.074 11.1778 17.326 11.1075 17.6034 10.9778C17.689 10.9374 17.7838 10.9291 17.8483 10.9291C17.9456 10.9291 18.045 10.9483 18.1273 10.9828L18.1319 10.9844C18.3673 11.068 18.5216 11.2348 18.5249 11.4103C18.5278 11.5737 18.4064 11.8182 17.8088 12.054C17.7477 12.0781 17.6695 12.1031 17.5871 12.1293C17.2565 12.2341 16.7575 12.3925 16.6066 12.7481C16.5246 12.9406 16.5517 13.1777 16.6868 13.4513C16.6885 13.4542 16.6897 13.4571 16.691 13.4604C16.7326 13.5577 17.7393 15.8533 19.985 16.223C20.0798 16.2388 20.1476 16.3232 20.1422 16.4188C20.1401 16.4533 20.1318 16.4879 20.1172 16.5215C19.9804 16.8417 19.2892 17.1075 18.1186 17.2884C18.0088 17.3054 17.9627 17.483 17.899 17.7737C17.8728 17.8939 17.8462 18.0115 17.8096 18.1351C17.7755 18.2515 17.6998 18.3081 17.578 18.3081H17.5597C17.4803 18.3081 17.3684 18.2935 17.2266 18.2661C16.9792 18.2178 16.7018 18.1729 16.3487 18.1729C16.1429 18.1729 15.93 18.1908 15.7158 18.2265C15.2804 18.2989 14.9082 18.5617 14.5144 18.8403C13.963 19.2304 13.3388 19.6716 12.4056 19.6716" fill="white"/>
<path d="M12.4602 5.14717C13.0616 5.14717 15.1313 5.30852 16.1069 7.49551C16.4279 8.21577 16.3456 9.5203 16.2799 10.5678C16.2695 10.7342 16.2595 10.8951 16.2512 11.0494L16.2478 11.1155L16.2919 11.1646C16.3098 11.1846 16.4766 11.3588 16.8479 11.3734H16.8537H16.86C17.1053 11.3638 17.3819 11.2877 17.6825 11.1471C17.7266 11.1263 17.7857 11.1164 17.8481 11.1164C17.9192 11.1164 17.9944 11.1297 18.0568 11.1559L18.0664 11.1596C18.224 11.2149 18.335 11.3189 18.3367 11.4129C18.3375 11.4661 18.298 11.6578 17.7395 11.8782C17.685 11.8998 17.6131 11.9227 17.5299 11.9489C17.1665 12.0641 16.618 12.2383 16.4329 12.6737C16.3289 12.9191 16.3572 13.2081 16.5173 13.5337C16.583 13.6876 17.6202 16.023 19.9535 16.4077C19.9531 16.4189 19.9502 16.431 19.944 16.4451C19.9045 16.5383 19.6529 16.8601 18.0888 17.1013C17.8439 17.1388 17.784 17.4132 17.7146 17.7322C17.6896 17.8466 17.6638 17.9617 17.6289 18.0807C17.6181 18.1169 17.616 18.1185 17.5777 18.1185H17.5594C17.49 18.1185 17.3848 18.104 17.2625 18.0803C17.0405 18.037 16.7365 17.9838 16.3485 17.9838C16.1318 17.9838 15.9085 18.0025 15.6848 18.0399C15.2061 18.1194 14.8169 18.3951 14.4044 18.6862C13.8509 19.0775 13.2782 19.4821 12.4053 19.4821C12.3671 19.4821 12.3301 19.4809 12.2926 19.4788H12.2827H12.2727C12.2511 19.4804 12.2299 19.4817 12.2078 19.4817C11.3349 19.4817 10.7623 19.0771 10.2088 18.6858C9.79627 18.3942 9.40703 18.1189 8.92838 18.0395C8.70465 18.0021 8.48133 17.9834 8.26467 17.9834C7.87668 17.9834 7.57269 18.0428 7.35062 18.0861C7.22836 18.1098 7.12273 18.1306 7.0537 18.1306C6.99715 18.1306 6.9959 18.1273 6.98384 18.0865C6.94891 17.9676 6.92312 17.8495 6.89817 17.7355C6.82831 17.4161 6.76843 17.1404 6.5239 17.103C4.95987 16.8614 4.70828 16.5391 4.66877 16.4464C4.66254 16.4318 4.65962 16.4193 4.65921 16.4081C6.99257 16.0239 8.0293 13.688 8.09542 13.5337C8.25594 13.2085 8.28422 12.9191 8.17984 12.6737C7.9952 12.2387 7.44627 12.0645 7.08323 11.9493C6.99964 11.9231 6.92811 11.8998 6.87322 11.8782C6.40164 11.6919 6.25692 11.5043 6.27855 11.3908C6.3035 11.2598 6.53097 11.1263 6.72934 11.1263C6.77383 11.1263 6.81292 11.1334 6.84203 11.1471C7.16432 11.2981 7.45833 11.3746 7.71616 11.3746C8.12162 11.3746 8.3021 11.1858 8.32164 11.1642L8.36573 11.1151L8.3624 11.0494C8.35408 10.8955 8.3441 10.7346 8.33329 10.5683C8.26758 9.51989 8.18524 8.2166 8.50628 7.49634C9.47814 5.31726 11.5379 5.14967 12.1458 5.14967C12.1608 5.14967 12.4253 5.14676 12.4253 5.14676C12.4361 5.14676 12.4482 5.14676 12.4607 5.14676M12.4602 4.77124H12.4594C12.4457 4.77124 12.4324 4.77124 12.4203 4.77124C12.3213 4.77207 12.1592 4.77374 12.1446 4.77415C11.7882 4.77415 11.0759 4.82447 10.3098 5.16256C9.87195 5.35552 9.47855 5.61667 9.13963 5.93855C8.73584 6.32196 8.40689 6.79479 8.16196 7.34414C7.80349 8.1484 7.88832 9.50284 7.95694 10.5911V10.5928C7.96443 10.7092 7.97233 10.8311 7.9794 10.9496C7.927 10.9737 7.84133 10.9991 7.71574 10.9991C7.51364 10.9991 7.27286 10.9342 7.00089 10.807C6.92104 10.7695 6.82956 10.7508 6.72892 10.7508C6.56715 10.7508 6.39624 10.7986 6.24819 10.8856C6.06189 10.9949 5.94171 11.1496 5.90885 11.321C5.88723 11.4345 5.88848 11.6582 6.13716 11.8857C6.27397 12.0109 6.47525 12.1261 6.73474 12.2288C6.80294 12.2558 6.88362 12.2812 6.96928 12.3082C7.26662 12.4026 7.71616 12.5452 7.83343 12.8214C7.8929 12.9615 7.86711 13.1453 7.75774 13.3682C7.75483 13.3744 7.75192 13.3803 7.74943 13.3865C7.72198 13.4506 7.46623 14.0294 6.94184 14.6403C6.64367 14.9876 6.31556 15.2778 5.96666 15.5032C5.54082 15.7785 5.08005 15.9582 4.59766 16.038C4.40803 16.0692 4.27288 16.238 4.28328 16.4297C4.2866 16.485 4.29949 16.5404 4.32195 16.5936C4.32195 16.5936 4.32195 16.5944 4.32237 16.5944C4.39888 16.7736 4.57687 16.9259 4.86547 17.0602C5.21853 17.224 5.74667 17.3621 6.43449 17.4698C6.46943 17.5359 6.50519 17.7023 6.53014 17.8158C6.55634 17.9368 6.58379 18.0611 6.62246 18.193C6.66446 18.336 6.77342 18.5069 7.05287 18.5069C7.15891 18.5069 7.28076 18.4832 7.42173 18.4558C7.62841 18.4154 7.91078 18.3601 8.26342 18.3601C8.45888 18.3601 8.66181 18.3772 8.86558 18.4113C9.25898 18.4766 9.5979 18.7161 9.99006 18.9935C10.5639 19.3994 11.2139 19.8585 12.2066 19.8585C12.2336 19.8585 12.2606 19.8576 12.2877 19.8556C12.3205 19.8572 12.3613 19.8585 12.4041 19.8585C13.3972 19.8585 14.0467 19.3989 14.6202 18.9935L14.621 18.9927C15.0132 18.7157 15.3517 18.4766 15.7451 18.4113C15.9488 18.3776 16.1518 18.3601 16.3472 18.3601C16.6841 18.3601 16.9511 18.403 17.1893 18.4495C17.3449 18.4803 17.4655 18.4949 17.5582 18.4949H17.5673H17.5769C17.7815 18.4949 17.9316 18.3826 17.989 18.1863C18.0273 18.057 18.0543 17.9355 18.0809 17.8125C18.1042 17.706 18.1416 17.5351 18.1766 17.4681C18.8652 17.36 19.393 17.2224 19.746 17.0585C20.0342 16.925 20.2118 16.7728 20.2887 16.594C20.312 16.5404 20.3253 16.485 20.3282 16.4285C20.339 16.2368 20.2035 16.0675 20.0138 16.0368C17.8688 15.6833 16.9024 13.4788 16.8621 13.3853C16.8596 13.379 16.8567 13.3732 16.8533 13.367C16.7435 13.1445 16.7182 12.9603 16.7776 12.8201C16.8945 12.5444 17.344 12.4018 17.6414 12.3074C17.7275 12.2803 17.8085 12.2546 17.8763 12.2279C18.1691 12.1123 18.3783 11.9867 18.5163 11.8445C18.681 11.6748 18.7134 11.5118 18.7114 11.4058C18.7064 11.1484 18.5093 10.9192 18.1961 10.8074C18.0905 10.7637 17.9695 10.7404 17.8468 10.7404C17.7632 10.7404 17.6393 10.7521 17.522 10.8065C17.2708 10.9238 17.0463 10.9883 16.8533 10.9974C16.7506 10.9924 16.6787 10.97 16.6321 10.9488C16.6379 10.8481 16.6446 10.745 16.6512 10.6373L16.6541 10.5911C16.7227 9.50201 16.8084 8.14674 16.4495 7.34206C16.2038 6.79105 15.8736 6.31697 15.4681 5.93272C15.1279 5.61085 14.7329 5.34969 14.2937 5.15674C13.5294 4.82114 12.8166 4.77124 12.4598 4.77124" fill="#020202"/>
</g>
</svg>
