<svg width="45" height="30" viewBox="0 0 45 30" fill="none" xmlns="http://www.w3.org/2000/svg">
<path d="M3.4211 13.3778C3.4211 12.9874 3.81575 12.8371 4.46952 12.8371C5.40678 12.8371 6.59075 13.0675 7.5281 13.478V11.1248C6.50447 10.7944 5.49315 10.6642 4.46952 10.6642C1.96578 10.6642 0.300781 11.7257 0.300781 13.4981C0.300781 16.2617 4.98741 15.8212 4.98741 17.0128C4.98741 17.4733 4.49415 17.6236 3.80344 17.6236C2.77981 17.6236 1.47244 17.2831 0.436409 16.8225V19.2057C1.58344 19.6062 2.74278 19.7764 3.80344 19.7764C6.36875 19.7764 8.13244 18.7451 8.13244 16.9527C8.12012 13.9687 3.4211 14.4993 3.4211 13.3778ZM11.7584 8.66157L8.74909 9.18223L8.73678 17.203C8.73678 18.685 10.1058 19.7764 11.9312 19.7764C12.9425 19.7764 13.6824 19.6262 14.0894 19.446V17.4133C13.6948 17.5434 11.7461 18.004 11.7461 16.5221V12.9673H14.0894V10.8345H11.7461L11.7584 8.66157ZM17.9252 11.5754L17.7278 10.8345H15.0638V19.5961H18.1472V13.6583C18.8747 12.8872 20.1081 13.0274 20.4905 13.1375V10.8345C20.0958 10.7143 18.6528 10.494 17.9252 11.5754ZM21.2428 10.8345H24.3384V19.5961H21.2428V10.8345ZM21.2428 10.0734L24.3384 9.53271V7.5L21.2428 8.03073V10.0734ZM30.7764 10.6642C29.5678 10.6642 28.7908 11.1248 28.3592 11.4453L28.1987 10.8245H25.4855V22.5L28.5688 21.9693L28.5812 19.1355C29.0252 19.3959 29.6788 19.7664 30.7641 19.7664C32.9718 19.7664 34.9821 18.3245 34.9821 15.1502C34.9698 12.2463 32.9348 10.6642 30.7764 10.6642ZM30.0365 17.5634C29.3088 17.5634 28.877 17.3532 28.5812 17.0928L28.5688 13.3778C28.8894 13.0875 29.3334 12.8872 30.0365 12.8872C31.1588 12.8872 31.9358 13.9086 31.9358 15.2203C31.9358 16.5621 31.1711 17.5634 30.0365 17.5634ZM44.7008 15.2504C44.7008 12.6869 43.1714 10.6642 40.2485 10.6642C37.313 10.6642 35.537 12.687 35.537 15.2304C35.537 18.2443 37.6338 19.7664 40.643 19.7664C42.1108 19.7664 43.2208 19.496 44.0594 19.1156V17.1128C43.2208 17.4533 42.2588 17.6636 41.0378 17.6636C39.8414 17.6636 38.7808 17.3231 38.6451 16.1416H44.6762C44.6762 16.0113 44.7008 15.4907 44.7008 15.2504ZM38.6081 14.2991C38.6081 13.1676 39.4592 12.6969 40.2362 12.6969C40.9884 12.6969 41.7902 13.1676 41.7902 14.2991H38.6081Z" fill="white"/>
</svg>
