<svg width="69" height="32" viewBox="0 0 69 32" fill="none" xmlns="http://www.w3.org/2000/svg">
<g clip-path="url(#clip0_19827_9823)">
<path d="M13.1818 13.0831C14.4797 14.0326 16.0696 14.5913 17.7867 14.5913V11.2094C17.4618 11.2094 17.1376 11.1748 16.8197 11.1059V13.768C15.1026 13.768 13.513 13.2092 12.2147 12.2597V19.1614C12.2147 22.6139 9.48021 25.4125 6.10709 25.4125C4.84857 25.4125 3.67871 25.0231 2.70703 24.3552C3.816 25.5159 5.36284 26.2359 7.07392 26.2359C10.4473 26.2359 13.1819 23.4373 13.1819 19.9848V13.083L13.1818 13.0831ZM14.3748 9.67126C13.6925 8.91016 13.2733 7.94051 13.1818 6.91156V6.47656H12.2654C12.496 7.82337 13.2828 8.97385 14.3748 9.67126ZM4.84049 21.7057C4.46994 21.2085 4.26965 20.6001 4.27058 19.9746C4.27058 18.3956 5.52128 17.1152 7.06449 17.1152C7.352 17.1152 7.6379 17.1602 7.91194 17.2492V13.7918C7.59167 13.7469 7.26845 13.7278 6.94525 13.7347V16.426C6.67104 16.337 6.38506 16.2918 6.09739 16.292C4.55419 16.292 3.30348 17.5722 3.30348 19.1515C3.30348 20.268 3.92863 21.2347 4.84049 21.7057Z" fill="#FF004F"/>
<path d="M12.2134 12.2597C13.5116 13.2092 15.1013 13.7678 16.8184 13.7678V11.1058C15.8775 10.8998 15.0228 10.3984 14.3735 9.67126C13.2815 8.97385 12.4947 7.82323 12.264 6.47656H9.85692V19.9843C9.85153 21.5591 8.60272 22.8341 7.06302 22.8341C6.15561 22.8341 5.34938 22.3914 4.83889 21.7057C3.9273 21.2347 3.30201 20.268 3.30201 19.1515C3.30201 17.5723 4.55272 16.292 6.09592 16.292C6.39152 16.292 6.67661 16.3392 6.94378 16.426V13.7349C3.62995 13.8049 0.964844 16.5762 0.964844 19.9845C0.964844 21.6859 1.62853 23.2282 2.7057 24.3552C3.71102 25.0464 4.89498 25.4145 6.10589 25.4124C9.479 25.4124 12.2135 22.6137 12.2135 19.1613V12.2597H12.2134Z" fill="#151B26"/>
<path d="M16.8204 11.1047V10.3849C15.9561 10.3863 15.1089 10.1386 14.3756 9.67013C15.0247 10.3975 15.8794 10.8991 16.8204 11.1048V11.1047ZM12.2661 6.47571C12.2441 6.34706 12.2272 6.21754 12.2155 6.08748V5.65234H8.89181V19.1603C8.88642 20.7347 7.63801 22.0098 6.09804 22.0098C5.66147 22.0105 5.23087 21.906 4.841 21.7049C5.35163 22.3906 6.15772 22.8331 7.06513 22.8331C8.6047 22.8331 9.85365 21.5582 9.85904 19.9835V6.47558H12.2661V6.47571ZM6.94603 13.734V12.9678C6.66831 12.9289 6.38832 12.9094 6.10801 12.9095C2.73463 12.9093 0 15.708 0 19.1603C0 21.3245 1.07475 23.232 2.70795 24.3541C1.63078 23.2272 0.967096 21.6847 0.967096 19.9834C0.967096 16.5752 3.63207 13.804 6.94603 13.7339V13.734Z" fill="#00F2EA"/>
<path d="M55.3306 22.5811C57.7441 22.5811 59.7008 20.5937 59.7008 18.1423C59.7008 15.6909 57.7441 13.7031 55.3306 13.7031H54.6719C57.0856 13.7031 59.0423 15.6909 59.0423 18.1423C59.0423 20.5937 57.0856 22.5811 54.6719 22.5811H55.3304H55.3306Z" fill="#FF004F"/>
<path d="M54.615 13.7031H53.9566C51.543 13.7031 49.5859 15.6909 49.5859 18.1423C49.5859 20.5937 51.543 22.5811 53.9566 22.5811H54.615C52.2011 22.5811 50.2444 20.5937 50.2444 18.1423C50.2444 15.6909 52.2011 13.7031 54.615 13.7031Z" fill="#00F2EA"/>
<path d="M35.9338 11.6974V16.7437L38.4478 14.19H41.5008L38.3279 17.3521L41.8601 22.5815H39.1664L36.7122 18.9936L35.9338 19.7239V22.5208H33.4194V11.6974H35.9338ZM63.053 11.6974V16.7437L65.5674 14.19H68.6204L65.4475 17.3521L68.9799 22.5818H66.2858L63.831 18.9939L63.053 19.7242V22.5211H60.5381V11.6974H63.053ZM54.6714 13.7037C57.0851 13.7037 59.042 15.6915 59.042 18.1428C59.042 20.5943 57.0851 22.5817 54.6714 22.5817H54.6118C52.1981 22.5817 50.2414 20.5943 50.2414 18.1428C50.2414 15.6915 52.1981 13.7037 54.6118 13.7037H54.6714ZM29.3489 11.6974L28.6304 14.0082H26.5353V22.521H23.9605V13.9475H21.3867V11.6973H29.3488L29.3489 11.6974ZM50.4214 11.6974L49.7032 14.0082H47.6081V22.521H45.0333V13.9475H42.4595V11.6973H50.4214V11.6974ZM32.3415 15.1635V22.5211H29.828V15.1635H32.3415ZM54.6421 15.9845C53.4684 15.9845 52.5163 16.9504 52.5163 18.1428C52.5163 19.3352 53.4684 20.3015 54.6421 20.3018C55.8152 20.3018 56.7671 19.3352 56.7671 18.1428C56.7671 16.9504 55.8152 15.9845 54.6421 15.9845ZM31.0842 11.6974C31.779 11.6974 32.3415 12.2693 32.3415 12.9743C32.3415 13.6793 31.7794 14.2511 31.0842 14.2511C30.39 14.2508 29.828 13.6794 29.828 12.9743C29.828 12.2693 30.39 11.6974 31.0842 11.6974Z" fill="#151B26"/>
</g>
<defs>
<clipPath id="clip0_19827_9823">
<rect width="68.982" height="20.6946" fill="white" transform="translate(0 5.65234)"/>
</clipPath>
</defs>
</svg>
