<svg width="39" height="24" viewBox="0 0 39 24" fill="none" xmlns="http://www.w3.org/2000/svg">
<g clip-path="url(#clip0_18626_101421)">
<path fill-rule="evenodd" clip-rule="evenodd" d="M32.8562 7.4101C32.4005 7.4101 31.9029 7.66189 31.6991 8.11753L29.5768 12.9856L28.8094 8.11753C28.7195 7.66189 28.4077 7.4101 27.9221 7.4101H25.2303L27.5324 15.4916C27.5744 15.6475 27.5804 15.8214 27.5504 16.0012C27.4305 16.6787 26.783 17.2242 26.1115 17.2242H24.6068C24.2231 17.2242 23.9713 17.4641 23.8514 17.9976L23.5156 20H26.1655C27.5504 20 29.1751 19.3046 30.2602 17.3801L35.572 7.4101H32.8562Z" fill="#323E48"/>
<path fill-rule="evenodd" clip-rule="evenodd" d="M6.747 5C7.54436 5 7.92806 5.31775 7.78417 6.11511L7.55635 7.41007H9.3789L8.97722 9.68825H7.14868L6.65108 12.512C6.47722 13.4952 7.45444 13.6271 8.01199 13.6271C8.1259 13.6271 8.21583 13.6271 8.28177 13.6211L7.83813 16.1631C7.70024 16.1751 7.55635 16.199 7.25659 16.199C5.8717 16.199 3.2518 15.8273 3.76739 12.9017L4.33094 9.69424H3L3.40168 7.41607H4.72062L5.14029 5H6.747Z" fill="#323E48"/>
<path fill-rule="evenodd" clip-rule="evenodd" d="M22.0814 7.51802L21.6137 10.1739C22.1893 10.4677 22.591 11.0672 22.591 11.7626C22.591 12.6739 21.9075 13.4233 21.0262 13.5312L20.5586 16.1871C20.6425 16.1871 20.7265 16.1931 20.8104 16.1931C23.2624 16.1931 25.2468 14.2087 25.2468 11.7566C25.2468 9.75423 23.9159 8.06358 22.0934 7.51202" fill="#00ADBB"/>
<path fill-rule="evenodd" clip-rule="evenodd" d="M19.9964 13.3514C19.4208 13.0576 19.0192 12.4581 19.0192 11.7626C19.0192 10.8573 19.7026 10.102 20.5839 9.99404L21.0515 7.33816C20.9676 7.33816 20.8837 7.32617 20.7997 7.32617C18.3537 7.32617 16.3633 9.31658 16.3633 11.7626C16.3633 13.765 17.6942 15.4617 19.5228 16.0072L19.9904 13.3454L19.9964 13.3514Z" fill="#00ADBB"/>
<path fill-rule="evenodd" clip-rule="evenodd" d="M10.441 7.4101H12.0118C12.8091 7.4101 13.1868 7.72785 13.0489 8.52521L12.8751 9.49044C13.4566 8.30339 14.7276 7.32617 16.0286 7.32617C16.1964 7.32617 16.3643 7.36214 16.3643 7.36214L15.8547 10.2338C15.8547 10.2338 15.6269 10.1799 15.2732 10.1799C14.5777 10.1799 13.4086 10.4017 12.7552 11.7027C12.5993 12.0264 12.4794 12.4161 12.3955 12.8837L11.8259 16.1151H8.90625L10.441 7.4161V7.4101Z" fill="#323E48"/>
</g>
<defs>
<clipPath id="clip0_18626_101421">
<rect width="32.5779" height="15" fill="white" transform="translate(3 5)"/>
</clipPath>
</defs>
</svg>
