<svg width="44" height="32" viewBox="0 0 44 32" fill="none" xmlns="http://www.w3.org/2000/svg">
<path fill-rule="evenodd" clip-rule="evenodd" d="M14.7271 21.0117H12.2095L10.3216 13.1129C10.232 12.7495 10.0417 12.4283 9.76183 12.2769C9.06337 11.8965 8.29372 11.5937 7.4541 11.441V11.1369H11.5098C12.0696 11.1369 12.4894 11.5937 12.5593 12.1242L13.5389 17.8219L16.0553 11.1369H18.503L14.7271 21.0117ZM19.9023 21.0117H17.5246L19.4825 11.1369H21.8602L19.9023 21.0117ZM24.9364 13.8725C25.0064 13.3406 25.4262 13.0365 25.9159 13.0365C26.6856 12.9602 27.524 13.1129 28.2237 13.492L28.6435 11.3659C27.9438 11.0618 27.1742 10.9091 26.4757 10.9091C24.168 10.9091 22.4887 12.2769 22.4887 14.1753C22.4887 15.6194 23.6782 16.3777 24.5178 16.8345C25.4262 17.29 25.776 17.5941 25.706 18.0496C25.706 18.7328 25.0064 19.0369 24.3079 19.0369C23.4683 19.0369 22.6287 18.8092 21.8602 18.4287L21.4404 20.5561C22.28 20.9353 23.1884 21.088 24.028 21.088C26.6156 21.163 28.2237 19.7965 28.2237 17.7455C28.2237 15.1626 24.9364 15.0112 24.9364 13.8725ZM36.545 21.0117L34.6571 11.1369H32.6292C32.2094 11.1369 31.7896 11.441 31.6497 11.8965L28.1537 21.0117H30.6014L31.0899 19.5688H34.0973L34.3772 21.0117H36.545ZM32.9791 13.7962L33.6775 17.5178H31.7197L32.9791 13.7962Z" fill="#172B85"/>
</svg>
