<svg width="570" height="465" viewBox="0 0 570 465" fill="none" xmlns="http://www.w3.org/2000/svg">
<circle cx="277" cy="239" r="191" stroke="url(#paint0_linear_19805_31904)" stroke-width="28"/>
<circle cx="277" cy="239" r="126" fill="#121822" stroke="url(#paint1_linear_19805_31904)" stroke-width="28"/>
<circle cx="277" cy="239" r="61" fill="#121821" stroke="url(#paint2_linear_19805_31904)" stroke-width="28"/>
<circle cx="277" cy="239" r="30" fill="#1F71EA"/>
<path d="M66 97C66 84.2975 76.2975 74 89 74H232C244.703 74 255 84.2975 255 97C255 109.703 244.703 120 232 120H89C76.2975 120 66 109.703 66 97Z" fill="white"/>
<path d="M232 71.5C246.083 71.5 257.5 82.9167 257.5 97C257.5 111.083 246.083 122.5 232 122.5H89C74.9167 122.5 63.5 111.083 63.5 97C63.5 82.9167 74.9167 71.5 89 71.5H232Z" stroke="white" stroke-opacity="0.1" stroke-width="5"/>
<path d="M80.464 100.684H82.48C82.9933 100.684 83.4693 100.595 83.908 100.418C84.3467 100.231 84.7293 99.9793 85.056 99.662C85.392 99.3353 85.6487 98.9573 85.826 98.528C86.0127 98.0893 86.106 97.6133 86.106 97.1C86.106 96.596 86.0127 96.1247 85.826 95.686C85.6487 95.2473 85.392 94.8693 85.056 94.552C84.7293 94.2253 84.3467 93.9733 83.908 93.796C83.4693 93.6093 82.9933 93.516 82.48 93.516H80.464V100.684ZM78.994 102V92.2H82.452C83.1893 92.2 83.8707 92.326 84.496 92.578C85.1213 92.8207 85.6673 93.1613 86.134 93.6C86.6007 94.0387 86.9647 94.5567 87.226 95.154C87.4873 95.7513 87.618 96.4 87.618 97.1C87.618 97.8093 87.4873 98.4627 87.226 99.06C86.974 99.648 86.6147 100.161 86.148 100.6C85.6813 101.039 85.1307 101.384 84.496 101.636C83.8707 101.879 83.1893 102 82.452 102H78.994ZM88.9979 102V94.874H90.3979V102H88.9979ZM89.6979 93.726C89.4645 93.726 89.2639 93.642 89.0959 93.474C88.9279 93.2967 88.8439 93.0913 88.8439 92.858C88.8439 92.6153 88.9279 92.4147 89.0959 92.256C89.2639 92.088 89.4645 92.004 89.6979 92.004C89.9405 92.004 90.1459 92.088 90.3139 92.256C90.4819 92.4147 90.5659 92.6153 90.5659 92.858C90.5659 93.0913 90.4819 93.2967 90.3139 93.474C90.1459 93.642 89.9405 93.726 89.6979 93.726ZM92.0467 102V94.874H93.4467V95.784C93.6707 95.448 93.946 95.1867 94.2727 95C94.6087 94.804 94.9867 94.706 95.4067 94.706C95.696 94.7153 95.934 94.7573 96.1207 94.832V96.092C95.99 96.036 95.8547 95.9987 95.7147 95.98C95.5747 95.952 95.4347 95.938 95.2947 95.938C94.884 95.938 94.52 96.05 94.2027 96.274C93.8854 96.4887 93.6334 96.806 93.4467 97.226V102H92.0467ZM100.248 102.126C99.5479 102.126 98.9132 101.963 98.3439 101.636C97.7839 101.309 97.3359 100.866 96.9999 100.306C96.6732 99.746 96.5099 99.1207 96.5099 98.43C96.5099 97.7487 96.6685 97.1327 96.9859 96.582C97.3032 96.022 97.7325 95.5787 98.2739 95.252C98.8152 94.916 99.4172 94.748 100.08 94.748C100.743 94.748 101.331 94.916 101.844 95.252C102.357 95.5787 102.763 96.0267 103.062 96.596C103.37 97.156 103.524 97.7907 103.524 98.5V98.892H97.9099C97.9845 99.284 98.1292 99.634 98.3439 99.942C98.5679 100.25 98.8479 100.493 99.1839 100.67C99.5292 100.847 99.9025 100.936 100.304 100.936C100.649 100.936 100.981 100.885 101.298 100.782C101.625 100.67 101.895 100.511 102.11 100.306L103.006 101.188C102.586 101.505 102.152 101.743 101.704 101.902C101.265 102.051 100.78 102.126 100.248 102.126ZM97.9239 97.842H102.138C102.082 97.4687 101.951 97.142 101.746 96.862C101.55 96.5727 101.303 96.3487 101.004 96.19C100.715 96.022 100.397 95.938 100.052 95.938C99.6972 95.938 99.3705 96.0173 99.0719 96.176C98.7732 96.3347 98.5212 96.5587 98.3159 96.848C98.1199 97.128 97.9892 97.4593 97.9239 97.842ZM108.217 102.126C107.536 102.126 106.915 101.963 106.355 101.636C105.795 101.309 105.352 100.866 105.025 100.306C104.708 99.746 104.549 99.1207 104.549 98.43C104.549 97.7393 104.712 97.1187 105.039 96.568C105.366 96.008 105.804 95.5647 106.355 95.238C106.915 94.902 107.536 94.734 108.217 94.734C108.758 94.734 109.276 94.8367 109.771 95.042C110.275 95.2473 110.709 95.5367 111.073 95.91L110.205 96.876C109.934 96.5773 109.631 96.3533 109.295 96.204C108.959 96.0547 108.609 95.98 108.245 95.98C107.816 95.98 107.424 96.0873 107.069 96.302C106.724 96.5167 106.448 96.8107 106.243 97.184C106.038 97.5573 105.935 97.9727 105.935 98.43C105.935 98.8873 106.038 99.3027 106.243 99.676C106.448 100.049 106.728 100.348 107.083 100.572C107.438 100.787 107.834 100.894 108.273 100.894C108.637 100.894 108.978 100.824 109.295 100.684C109.612 100.535 109.911 100.32 110.191 100.04L111.045 100.936C110.672 101.319 110.238 101.613 109.743 101.818C109.258 102.023 108.749 102.126 108.217 102.126ZM115.36 102.126C114.67 102.126 114.142 101.967 113.778 101.65C113.414 101.323 113.232 100.852 113.232 100.236V96.05H111.72V94.874H113.232V93.054L114.618 92.718V94.874H116.718V96.05H114.618V99.914C114.618 100.278 114.698 100.539 114.856 100.698C115.024 100.847 115.295 100.922 115.668 100.922C115.864 100.922 116.037 100.908 116.186 100.88C116.345 100.852 116.513 100.81 116.69 100.754V101.93C116.504 101.995 116.284 102.042 116.032 102.07C115.79 102.107 115.566 102.126 115.36 102.126ZM125.52 102.154C124.81 102.154 124.148 102.028 123.532 101.776C122.916 101.515 122.37 101.155 121.894 100.698C121.427 100.231 121.063 99.6947 120.802 99.088C120.55 98.472 120.424 97.8093 120.424 97.1C120.424 96.3907 120.55 95.7327 120.802 95.126C121.063 94.51 121.427 93.9733 121.894 93.516C122.37 93.0493 122.916 92.69 123.532 92.438C124.148 92.1767 124.81 92.046 125.52 92.046C126.229 92.046 126.892 92.1767 127.508 92.438C128.133 92.69 128.679 93.0493 129.146 93.516C129.612 93.9733 129.976 94.51 130.238 95.126C130.499 95.7327 130.63 96.3907 130.63 97.1C130.63 97.8093 130.499 98.472 130.238 99.088C129.976 99.6947 129.612 100.231 129.146 100.698C128.679 101.155 128.133 101.515 127.508 101.776C126.892 102.028 126.229 102.154 125.52 102.154ZM125.534 100.796C126.038 100.796 126.504 100.703 126.934 100.516C127.372 100.329 127.755 100.073 128.082 99.746C128.408 99.41 128.665 99.018 128.852 98.57C129.038 98.1127 129.132 97.6227 129.132 97.1C129.132 96.568 129.038 96.078 128.852 95.63C128.665 95.182 128.408 94.7947 128.082 94.468C127.755 94.132 127.372 93.8707 126.934 93.684C126.504 93.4973 126.038 93.404 125.534 93.404C125.02 93.404 124.544 93.4973 124.106 93.684C123.667 93.8707 123.284 94.132 122.958 94.468C122.631 94.7947 122.374 95.182 122.188 95.63C122.01 96.078 121.922 96.5633 121.922 97.086C121.922 97.618 122.01 98.1127 122.188 98.57C122.374 99.018 122.631 99.41 122.958 99.746C123.284 100.073 123.667 100.329 124.106 100.516C124.544 100.703 125.02 100.796 125.534 100.796ZM132.01 104.856V94.874H133.396V95.56C133.993 95.028 134.721 94.762 135.58 94.762C136.252 94.762 136.858 94.9253 137.4 95.252C137.95 95.5787 138.384 96.0173 138.702 96.568C139.019 97.1187 139.178 97.7393 139.178 98.43C139.178 99.1207 139.014 99.746 138.688 100.306C138.37 100.857 137.936 101.295 137.386 101.622C136.844 101.949 136.233 102.112 135.552 102.112C135.16 102.112 134.782 102.051 134.418 101.93C134.054 101.799 133.718 101.617 133.41 101.384V104.856H132.01ZM135.398 100.894C135.855 100.894 136.261 100.787 136.616 100.572C136.98 100.357 137.269 100.068 137.484 99.704C137.698 99.3307 137.806 98.9107 137.806 98.444C137.806 97.9773 137.698 97.5573 137.484 97.184C137.269 96.8107 136.98 96.5167 136.616 96.302C136.261 96.0873 135.855 95.98 135.398 95.98C134.996 95.98 134.623 96.0547 134.278 96.204C133.932 96.3533 133.643 96.5633 133.41 96.834V100.054C133.643 100.315 133.932 100.521 134.278 100.67C134.632 100.819 135.006 100.894 135.398 100.894ZM143.93 102.126C143.23 102.126 142.595 101.963 142.026 101.636C141.466 101.309 141.018 100.866 140.682 100.306C140.355 99.746 140.192 99.1207 140.192 98.43C140.192 97.7487 140.35 97.1327 140.668 96.582C140.985 96.022 141.414 95.5787 141.956 95.252C142.497 94.916 143.099 94.748 143.762 94.748C144.424 94.748 145.012 94.916 145.526 95.252C146.039 95.5787 146.445 96.0267 146.744 96.596C147.052 97.156 147.206 97.7907 147.206 98.5V98.892H141.592C141.666 99.284 141.811 99.634 142.026 99.942C142.25 100.25 142.53 100.493 142.866 100.67C143.211 100.847 143.584 100.936 143.986 100.936C144.331 100.936 144.662 100.885 144.98 100.782C145.306 100.67 145.577 100.511 145.792 100.306L146.688 101.188C146.268 101.505 145.834 101.743 145.386 101.902C144.947 102.051 144.462 102.126 143.93 102.126ZM141.606 97.842H145.82C145.764 97.4687 145.633 97.142 145.428 96.862C145.232 96.5727 144.984 96.3487 144.686 96.19C144.396 96.022 144.079 95.938 143.734 95.938C143.379 95.938 143.052 96.0173 142.754 96.176C142.455 96.3347 142.203 96.5587 141.998 96.848C141.802 97.128 141.671 97.4593 141.606 97.842ZM148.539 102V94.874H149.939V95.784C150.163 95.448 150.438 95.1867 150.765 95C151.101 94.804 151.479 94.706 151.899 94.706C152.188 94.7153 152.426 94.7573 152.613 94.832V96.092C152.482 96.036 152.347 95.9987 152.207 95.98C152.067 95.952 151.927 95.938 151.787 95.938C151.376 95.938 151.012 96.05 150.695 96.274C150.378 96.4887 150.126 96.806 149.939 97.226V102H148.539ZM155.687 102.126C155.174 102.126 154.721 102.037 154.329 101.86C153.937 101.673 153.629 101.417 153.405 101.09C153.181 100.763 153.069 100.385 153.069 99.956C153.069 99.284 153.326 98.7567 153.839 98.374C154.353 97.982 155.057 97.786 155.953 97.786C156.653 97.786 157.302 97.9213 157.899 98.192V97.436C157.899 96.9227 157.75 96.54 157.451 96.288C157.162 96.036 156.733 95.91 156.163 95.91C155.837 95.91 155.496 95.9613 155.141 96.064C154.787 96.1573 154.39 96.3067 153.951 96.512L153.433 95.462C153.975 95.21 154.479 95.028 154.945 94.916C155.412 94.7947 155.883 94.734 156.359 94.734C157.283 94.734 157.997 94.9533 158.501 95.392C159.015 95.8307 159.271 96.456 159.271 97.268V102H157.899V101.384C157.582 101.636 157.241 101.823 156.877 101.944C156.513 102.065 156.117 102.126 155.687 102.126ZM154.413 99.928C154.413 100.273 154.558 100.553 154.847 100.768C155.146 100.983 155.533 101.09 156.009 101.09C156.383 101.09 156.723 101.034 157.031 100.922C157.349 100.81 157.638 100.637 157.899 100.404V99.2C157.629 99.0413 157.344 98.9293 157.045 98.864C156.756 98.7893 156.429 98.752 156.065 98.752C155.552 98.752 155.146 98.8593 154.847 99.074C154.558 99.2793 154.413 99.564 154.413 99.928ZM163.732 102.126C163.041 102.126 162.514 101.967 162.15 101.65C161.786 101.323 161.604 100.852 161.604 100.236V96.05H160.092V94.874H161.604V93.054L162.99 92.718V94.874H165.09V96.05H162.99V99.914C162.99 100.278 163.069 100.539 163.228 100.698C163.396 100.847 163.666 100.922 164.04 100.922C164.236 100.922 164.408 100.908 164.558 100.88C164.716 100.852 164.884 100.81 165.062 100.754V101.93C164.875 101.995 164.656 102.042 164.404 102.07C164.161 102.107 163.937 102.126 163.732 102.126ZM166.121 102V94.874H167.521V102H166.121ZM166.821 93.726C166.588 93.726 166.387 93.642 166.219 93.474C166.051 93.2967 165.967 93.0913 165.967 92.858C165.967 92.6153 166.051 92.4147 166.219 92.256C166.387 92.088 166.588 92.004 166.821 92.004C167.064 92.004 167.269 92.088 167.437 92.256C167.605 92.4147 167.689 92.6153 167.689 92.858C167.689 93.0913 167.605 93.2967 167.437 93.474C167.269 93.642 167.064 93.726 166.821 93.726ZM172.558 102.14C171.867 102.14 171.237 101.977 170.668 101.65C170.108 101.323 169.664 100.88 169.338 100.32C169.011 99.76 168.848 99.1347 168.848 98.444C168.848 97.7533 169.011 97.128 169.338 96.568C169.664 96.008 170.108 95.5647 170.668 95.238C171.237 94.902 171.867 94.734 172.558 94.734C173.258 94.734 173.888 94.902 174.448 95.238C175.008 95.5647 175.451 96.008 175.778 96.568C176.104 97.128 176.268 97.7533 176.268 98.444C176.268 99.1347 176.104 99.76 175.778 100.32C175.451 100.88 175.008 101.323 174.448 101.65C173.888 101.977 173.258 102.14 172.558 102.14ZM172.558 100.908C172.996 100.908 173.393 100.801 173.748 100.586C174.102 100.362 174.382 100.063 174.588 99.69C174.793 99.3167 174.896 98.8967 174.896 98.43C174.896 97.9727 174.788 97.562 174.574 97.198C174.368 96.8247 174.088 96.526 173.734 96.302C173.388 96.078 172.996 95.966 172.558 95.966C172.119 95.966 171.722 96.078 171.368 96.302C171.022 96.526 170.742 96.8247 170.528 97.198C170.322 97.562 170.22 97.9727 170.22 98.43C170.22 98.8967 170.322 99.3167 170.528 99.69C170.733 100.063 171.013 100.362 171.368 100.586C171.722 100.801 172.119 100.908 172.558 100.908ZM177.592 102V94.874H178.992V95.602C179.542 95.0233 180.256 94.734 181.134 94.734C181.684 94.734 182.165 94.8507 182.576 95.084C182.996 95.3173 183.322 95.644 183.556 96.064C183.798 96.484 183.92 96.9693 183.92 97.52V102H182.52V97.758C182.52 97.198 182.361 96.7593 182.044 96.442C181.736 96.1153 181.302 95.952 180.742 95.952C180.368 95.952 180.032 96.0313 179.734 96.19C179.435 96.3487 179.188 96.5773 178.992 96.876V102H177.592ZM187.789 102.126C187.276 102.126 186.823 102.037 186.431 101.86C186.039 101.673 185.731 101.417 185.507 101.09C185.283 100.763 185.171 100.385 185.171 99.956C185.171 99.284 185.428 98.7567 185.941 98.374C186.454 97.982 187.159 97.786 188.055 97.786C188.755 97.786 189.404 97.9213 190.001 98.192V97.436C190.001 96.9227 189.852 96.54 189.553 96.288C189.264 96.036 188.834 95.91 188.265 95.91C187.938 95.91 187.598 95.9613 187.243 96.064C186.888 96.1573 186.492 96.3067 186.053 96.512L185.535 95.462C186.076 95.21 186.58 95.028 187.047 94.916C187.514 94.7947 187.985 94.734 188.461 94.734C189.385 94.734 190.099 94.9533 190.603 95.392C191.116 95.8307 191.373 96.456 191.373 97.268V102H190.001V101.384C189.684 101.636 189.343 101.823 188.979 101.944C188.615 102.065 188.218 102.126 187.789 102.126ZM186.515 99.928C186.515 100.273 186.66 100.553 186.949 100.768C187.248 100.983 187.635 101.09 188.111 101.09C188.484 101.09 188.825 101.034 189.133 100.922C189.45 100.81 189.74 100.637 190.001 100.404V99.2C189.73 99.0413 189.446 98.9293 189.147 98.864C188.858 98.7893 188.531 98.752 188.167 98.752C187.654 98.752 187.248 98.8593 186.949 99.074C186.66 99.2793 186.515 99.564 186.515 99.928ZM192.986 102V92.2L194.386 91.934V102H192.986ZM198.149 102L202.195 92.2H203.931L207.935 102H206.339L205.205 99.13H200.823L199.675 102H198.149ZM201.299 97.912H204.729L203.021 93.6L201.299 97.912ZM211.754 102.126C211.073 102.126 210.452 101.963 209.892 101.636C209.332 101.309 208.889 100.866 208.562 100.306C208.245 99.746 208.086 99.1207 208.086 98.43C208.086 97.7393 208.249 97.1187 208.576 96.568C208.903 96.008 209.341 95.5647 209.892 95.238C210.452 94.902 211.073 94.734 211.754 94.734C212.295 94.734 212.813 94.8367 213.308 95.042C213.812 95.2473 214.246 95.5367 214.61 95.91L213.742 96.876C213.471 96.5773 213.168 96.3533 212.832 96.204C212.496 96.0547 212.146 95.98 211.782 95.98C211.353 95.98 210.961 96.0873 210.606 96.302C210.261 96.5167 209.985 96.8107 209.78 97.184C209.575 97.5573 209.472 97.9727 209.472 98.43C209.472 98.8873 209.575 99.3027 209.78 99.676C209.985 100.049 210.265 100.348 210.62 100.572C210.975 100.787 211.371 100.894 211.81 100.894C212.174 100.894 212.515 100.824 212.832 100.684C213.149 100.535 213.448 100.32 213.728 100.04L214.582 100.936C214.209 101.319 213.775 101.613 213.28 101.818C212.795 102.023 212.286 102.126 211.754 102.126ZM218.85 102.126C218.168 102.126 217.548 101.963 216.988 101.636C216.428 101.309 215.984 100.866 215.658 100.306C215.34 99.746 215.182 99.1207 215.182 98.43C215.182 97.7393 215.345 97.1187 215.672 96.568C215.998 96.008 216.437 95.5647 216.988 95.238C217.548 94.902 218.168 94.734 218.85 94.734C219.391 94.734 219.909 94.8367 220.404 95.042C220.908 95.2473 221.342 95.5367 221.706 95.91L220.838 96.876C220.567 96.5773 220.264 96.3533 219.928 96.204C219.592 96.0547 219.242 95.98 218.878 95.98C218.448 95.98 218.056 96.0873 217.702 96.302C217.356 96.5167 217.081 96.8107 216.876 97.184C216.67 97.5573 216.568 97.9727 216.568 98.43C216.568 98.8873 216.67 99.3027 216.876 99.676C217.081 100.049 217.361 100.348 217.716 100.572C218.07 100.787 218.467 100.894 218.906 100.894C219.27 100.894 219.61 100.824 219.928 100.684C220.245 100.535 220.544 100.32 220.824 100.04L221.678 100.936C221.304 101.319 220.87 101.613 220.376 101.818C219.89 102.023 219.382 102.126 218.85 102.126ZM226.015 102.126C225.315 102.126 224.681 101.963 224.111 101.636C223.551 101.309 223.103 100.866 222.767 100.306C222.441 99.746 222.277 99.1207 222.277 98.43C222.277 97.7487 222.436 97.1327 222.753 96.582C223.071 96.022 223.5 95.5787 224.041 95.252C224.583 94.916 225.185 94.748 225.847 94.748C226.51 94.748 227.098 94.916 227.611 95.252C228.125 95.5787 228.531 96.0267 228.829 96.596C229.137 97.156 229.291 97.7907 229.291 98.5V98.892H223.677C223.752 99.284 223.897 99.634 224.111 99.942C224.335 100.25 224.615 100.493 224.951 100.67C225.297 100.847 225.67 100.936 226.071 100.936C226.417 100.936 226.748 100.885 227.065 100.782C227.392 100.67 227.663 100.511 227.877 100.306L228.773 101.188C228.353 101.505 227.919 101.743 227.471 101.902C227.033 102.051 226.547 102.126 226.015 102.126ZM223.691 97.842H227.905C227.849 97.4687 227.719 97.142 227.513 96.862C227.317 96.5727 227.07 96.3487 226.771 96.19C226.482 96.022 226.165 95.938 225.819 95.938C225.465 95.938 225.138 96.0173 224.839 96.176C224.541 96.3347 224.289 96.5587 224.083 96.848C223.887 97.128 223.757 97.4593 223.691 97.842ZM233.143 102.14C232.527 102.14 231.949 102.051 231.407 101.874C230.875 101.687 230.413 101.426 230.021 101.09L230.791 100.166C231.155 100.455 231.529 100.679 231.911 100.838C232.303 100.987 232.7 101.062 233.101 101.062C233.605 101.062 234.016 100.964 234.333 100.768C234.651 100.572 234.809 100.315 234.809 99.998C234.809 99.7367 234.716 99.5313 234.529 99.382C234.343 99.2327 234.053 99.13 233.661 99.074L232.373 98.892C231.664 98.7893 231.132 98.57 230.777 98.234C230.423 97.898 230.245 97.45 230.245 96.89C230.245 96.4607 230.362 96.0873 230.595 95.77C230.829 95.4433 231.155 95.1913 231.575 95.014C231.995 94.8273 232.485 94.734 233.045 94.734C233.559 94.734 234.053 94.8087 234.529 94.958C235.005 95.1073 235.463 95.3407 235.901 95.658L235.187 96.582C234.795 96.3207 234.413 96.1293 234.039 96.008C233.675 95.8867 233.307 95.826 232.933 95.826C232.504 95.826 232.159 95.9193 231.897 96.106C231.636 96.2833 231.505 96.5167 231.505 96.806C231.505 97.0673 231.594 97.2727 231.771 97.422C231.958 97.562 232.261 97.66 232.681 97.716L233.969 97.898C234.679 98.0007 235.215 98.22 235.579 98.556C235.943 98.8827 236.125 99.326 236.125 99.886C236.125 100.315 235.995 100.703 235.733 101.048C235.472 101.384 235.117 101.65 234.669 101.846C234.221 102.042 233.713 102.14 233.143 102.14ZM239.651 102.14C239.035 102.14 238.456 102.051 237.915 101.874C237.383 101.687 236.921 101.426 236.529 101.09L237.299 100.166C237.663 100.455 238.036 100.679 238.419 100.838C238.811 100.987 239.208 101.062 239.609 101.062C240.113 101.062 240.524 100.964 240.841 100.768C241.158 100.572 241.317 100.315 241.317 99.998C241.317 99.7367 241.224 99.5313 241.037 99.382C240.85 99.2327 240.561 99.13 240.169 99.074L238.881 98.892C238.172 98.7893 237.64 98.57 237.285 98.234C236.93 97.898 236.753 97.45 236.753 96.89C236.753 96.4607 236.87 96.0873 237.103 95.77C237.336 95.4433 237.663 95.1913 238.083 95.014C238.503 94.8273 238.993 94.734 239.553 94.734C240.066 94.734 240.561 94.8087 241.037 94.958C241.513 95.1073 241.97 95.3407 242.409 95.658L241.695 96.582C241.303 96.3207 240.92 96.1293 240.547 96.008C240.183 95.8867 239.814 95.826 239.441 95.826C239.012 95.826 238.666 95.9193 238.405 96.106C238.144 96.2833 238.013 96.5167 238.013 96.806C238.013 97.0673 238.102 97.2727 238.279 97.422C238.466 97.562 238.769 97.66 239.189 97.716L240.477 97.898C241.186 98.0007 241.723 98.22 242.087 98.556C242.451 98.8827 242.633 99.326 242.633 99.886C242.633 100.315 242.502 100.703 242.241 101.048C241.98 101.384 241.625 101.65 241.177 101.846C240.729 102.042 240.22 102.14 239.651 102.14Z" fill="#151B26"/>
<path d="M304 171C304 158.297 314.297 148 327 148H466C478.703 148 489 158.297 489 171C489 183.703 478.703 194 466 194H327C314.297 194 304 183.703 304 171Z" fill="white"/>
<path d="M466 145.5C480.083 145.5 491.5 156.917 491.5 171C491.5 185.083 480.083 196.5 466 196.5H327C312.917 196.5 301.5 185.083 301.5 171C301.5 156.917 312.917 145.5 327 145.5H466Z" stroke="white" stroke-opacity="0.1" stroke-width="5"/>
<path d="M316.994 176V166.2H321.53C322.174 166.2 322.734 166.326 323.21 166.578C323.686 166.821 324.059 167.161 324.33 167.6C324.601 168.039 324.736 168.547 324.736 169.126C324.736 169.705 324.601 170.213 324.33 170.652C324.059 171.091 323.681 171.436 323.196 171.688C322.72 171.931 322.165 172.052 321.53 172.052H318.464V176H316.994ZM318.464 170.806H321.376C321.955 170.806 322.412 170.657 322.748 170.358C323.093 170.05 323.266 169.644 323.266 169.14C323.266 168.636 323.093 168.235 322.748 167.936C322.412 167.637 321.955 167.488 321.376 167.488H318.464V170.806ZM326.082 176V166.2L327.482 165.934V176H326.082ZM331.385 176.126C330.871 176.126 330.419 176.037 330.027 175.86C329.635 175.673 329.327 175.417 329.103 175.09C328.879 174.763 328.767 174.385 328.767 173.956C328.767 173.284 329.023 172.757 329.537 172.374C330.05 171.982 330.755 171.786 331.651 171.786C332.351 171.786 332.999 171.921 333.597 172.192V171.436C333.597 170.923 333.447 170.54 333.149 170.288C332.859 170.036 332.43 169.91 331.861 169.91C331.534 169.91 331.193 169.961 330.839 170.064C330.484 170.157 330.087 170.307 329.649 170.512L329.131 169.462C329.672 169.21 330.176 169.028 330.643 168.916C331.109 168.795 331.581 168.734 332.057 168.734C332.981 168.734 333.695 168.953 334.199 169.392C334.712 169.831 334.969 170.456 334.969 171.268V176H333.597V175.384C333.279 175.636 332.939 175.823 332.575 175.944C332.211 176.065 331.814 176.126 331.385 176.126ZM330.111 173.928C330.111 174.273 330.255 174.553 330.545 174.768C330.843 174.983 331.231 175.09 331.707 175.09C332.08 175.09 332.421 175.034 332.729 174.922C333.046 174.81 333.335 174.637 333.597 174.404V173.2C333.326 173.041 333.041 172.929 332.743 172.864C332.453 172.789 332.127 172.752 331.763 172.752C331.249 172.752 330.843 172.859 330.545 173.074C330.255 173.279 330.111 173.564 330.111 173.928ZM339.429 176.126C338.738 176.126 338.211 175.967 337.847 175.65C337.483 175.323 337.301 174.852 337.301 174.236V170.05H335.789V168.874H337.301V167.054L338.687 166.718V168.874H340.787V170.05H338.687V173.914C338.687 174.278 338.766 174.539 338.925 174.698C339.093 174.847 339.363 174.922 339.737 174.922C339.933 174.922 340.105 174.908 340.255 174.88C340.413 174.852 340.581 174.81 340.759 174.754V175.93C340.572 175.995 340.353 176.042 340.101 176.07C339.858 176.107 339.634 176.126 339.429 176.126ZM343.019 176V170.05H341.367V168.874H343.019V167.796C343.019 167.049 343.224 166.48 343.635 166.088C344.055 165.696 344.652 165.5 345.427 165.5C345.623 165.5 345.805 165.514 345.973 165.542C346.15 165.561 346.309 165.593 346.449 165.64V166.844C346.281 166.797 346.132 166.765 346.001 166.746C345.87 166.718 345.726 166.704 345.567 166.704C345.175 166.704 344.881 166.797 344.685 166.984C344.498 167.161 344.405 167.446 344.405 167.838V168.874H346.449V170.05H344.405V176H343.019ZM350.566 176.14C349.875 176.14 349.245 175.977 348.676 175.65C348.116 175.323 347.672 174.88 347.346 174.32C347.019 173.76 346.856 173.135 346.856 172.444C346.856 171.753 347.019 171.128 347.346 170.568C347.672 170.008 348.116 169.565 348.676 169.238C349.245 168.902 349.875 168.734 350.566 168.734C351.266 168.734 351.896 168.902 352.456 169.238C353.016 169.565 353.459 170.008 353.786 170.568C354.112 171.128 354.276 171.753 354.276 172.444C354.276 173.135 354.112 173.76 353.786 174.32C353.459 174.88 353.016 175.323 352.456 175.65C351.896 175.977 351.266 176.14 350.566 176.14ZM350.566 174.908C351.004 174.908 351.401 174.801 351.756 174.586C352.11 174.362 352.39 174.063 352.596 173.69C352.801 173.317 352.904 172.897 352.904 172.43C352.904 171.973 352.796 171.562 352.582 171.198C352.376 170.825 352.096 170.526 351.742 170.302C351.396 170.078 351.004 169.966 350.566 169.966C350.127 169.966 349.73 170.078 349.376 170.302C349.03 170.526 348.75 170.825 348.536 171.198C348.33 171.562 348.228 171.973 348.228 172.43C348.228 172.897 348.33 173.317 348.536 173.69C348.741 174.063 349.021 174.362 349.376 174.586C349.73 174.801 350.127 174.908 350.566 174.908ZM355.599 176V168.874H356.999V169.784C357.223 169.448 357.499 169.187 357.825 169C358.161 168.804 358.539 168.706 358.959 168.706C359.249 168.715 359.487 168.757 359.673 168.832V170.092C359.543 170.036 359.407 169.999 359.267 169.98C359.127 169.952 358.987 169.938 358.847 169.938C358.437 169.938 358.073 170.05 357.755 170.274C357.438 170.489 357.186 170.806 356.999 171.226V176H355.599ZM360.795 176V168.874H362.195V169.56C362.727 169.009 363.394 168.734 364.197 168.734C364.682 168.734 365.111 168.841 365.485 169.056C365.867 169.271 366.171 169.56 366.395 169.924C366.693 169.532 367.043 169.238 367.445 169.042C367.846 168.837 368.299 168.734 368.803 168.734C369.335 168.734 369.797 168.851 370.189 169.084C370.59 169.317 370.903 169.644 371.127 170.064C371.36 170.484 371.477 170.969 371.477 171.52V176H370.077V171.758C370.077 171.198 369.927 170.759 369.629 170.442C369.339 170.115 368.943 169.952 368.439 169.952C368.093 169.952 367.781 170.031 367.501 170.19C367.221 170.349 366.978 170.591 366.773 170.918C366.791 171.011 366.805 171.109 366.815 171.212C366.824 171.315 366.829 171.417 366.829 171.52V176H365.443V171.758C365.443 171.198 365.293 170.759 364.995 170.442C364.705 170.115 364.309 169.952 363.805 169.952C363.469 169.952 363.165 170.027 362.895 170.176C362.624 170.316 362.391 170.531 362.195 170.82V176H360.795ZM372.904 172.654V171.436H377.944V172.654H372.904ZM379.584 176V166.2H381.054V174.698H386.696V176H379.584ZM391.062 176.126C390.362 176.126 389.728 175.963 389.158 175.636C388.598 175.309 388.15 174.866 387.814 174.306C387.488 173.746 387.324 173.121 387.324 172.43C387.324 171.749 387.483 171.133 387.8 170.582C388.118 170.022 388.547 169.579 389.088 169.252C389.63 168.916 390.232 168.748 390.894 168.748C391.557 168.748 392.145 168.916 392.658 169.252C393.172 169.579 393.578 170.027 393.876 170.596C394.184 171.156 394.338 171.791 394.338 172.5V172.892H388.724C388.799 173.284 388.944 173.634 389.158 173.942C389.382 174.25 389.662 174.493 389.998 174.67C390.344 174.847 390.717 174.936 391.118 174.936C391.464 174.936 391.795 174.885 392.112 174.782C392.439 174.67 392.71 174.511 392.924 174.306L393.82 175.188C393.4 175.505 392.966 175.743 392.518 175.902C392.08 176.051 391.594 176.126 391.062 176.126ZM388.738 171.842H392.952C392.896 171.469 392.766 171.142 392.56 170.862C392.364 170.573 392.117 170.349 391.818 170.19C391.529 170.022 391.212 169.938 390.866 169.938C390.512 169.938 390.185 170.017 389.886 170.176C389.588 170.335 389.336 170.559 389.13 170.848C388.934 171.128 388.804 171.459 388.738 171.842ZM397.763 176L394.683 168.874H396.223L398.449 174.208L400.675 168.874H402.159L399.107 176H397.763ZM406.238 176.126C405.538 176.126 404.903 175.963 404.334 175.636C403.774 175.309 403.326 174.866 402.99 174.306C402.663 173.746 402.5 173.121 402.5 172.43C402.5 171.749 402.659 171.133 402.976 170.582C403.293 170.022 403.723 169.579 404.264 169.252C404.805 168.916 405.407 168.748 406.07 168.748C406.733 168.748 407.321 168.916 407.834 169.252C408.347 169.579 408.753 170.027 409.052 170.596C409.36 171.156 409.514 171.791 409.514 172.5V172.892H403.9C403.975 173.284 404.119 173.634 404.334 173.942C404.558 174.25 404.838 174.493 405.174 174.67C405.519 174.847 405.893 174.936 406.294 174.936C406.639 174.936 406.971 174.885 407.288 174.782C407.615 174.67 407.885 174.511 408.1 174.306L408.996 175.188C408.576 175.505 408.142 175.743 407.694 175.902C407.255 176.051 406.77 176.126 406.238 176.126ZM403.914 171.842H408.128C408.072 171.469 407.941 171.142 407.736 170.862C407.54 170.573 407.293 170.349 406.994 170.19C406.705 170.022 406.387 169.938 406.042 169.938C405.687 169.938 405.361 170.017 405.062 170.176C404.763 170.335 404.511 170.559 404.306 170.848C404.11 171.128 403.979 171.459 403.914 171.842ZM410.847 176V166.2L412.247 165.934V176H410.847ZM416.99 176V166.2H424.214V167.488H418.46V170.428H422.24V171.674H418.46V174.712H424.27V176H416.99ZM424.774 176L427.546 172.346L424.886 168.874H426.524L428.358 171.31L430.192 168.874H431.774L429.142 172.332L431.942 176H430.304L428.33 173.368L426.356 176H424.774ZM432.805 178.856V168.874H434.191V169.56C434.788 169.028 435.516 168.762 436.375 168.762C437.047 168.762 437.653 168.925 438.195 169.252C438.745 169.579 439.179 170.017 439.497 170.568C439.814 171.119 439.973 171.739 439.973 172.43C439.973 173.121 439.809 173.746 439.483 174.306C439.165 174.857 438.731 175.295 438.181 175.622C437.639 175.949 437.028 176.112 436.347 176.112C435.955 176.112 435.577 176.051 435.213 175.93C434.849 175.799 434.513 175.617 434.205 175.384V178.856H432.805ZM436.193 174.894C436.65 174.894 437.056 174.787 437.411 174.572C437.775 174.357 438.064 174.068 438.279 173.704C438.493 173.331 438.601 172.911 438.601 172.444C438.601 171.977 438.493 171.557 438.279 171.184C438.064 170.811 437.775 170.517 437.411 170.302C437.056 170.087 436.65 169.98 436.193 169.98C435.791 169.98 435.418 170.055 435.073 170.204C434.727 170.353 434.438 170.563 434.205 170.834V174.054C434.438 174.315 434.727 174.521 435.073 174.67C435.427 174.819 435.801 174.894 436.193 174.894ZM444.724 176.126C444.024 176.126 443.39 175.963 442.82 175.636C442.26 175.309 441.812 174.866 441.476 174.306C441.15 173.746 440.986 173.121 440.986 172.43C440.986 171.749 441.145 171.133 441.462 170.582C441.78 170.022 442.209 169.579 442.75 169.252C443.292 168.916 443.894 168.748 444.556 168.748C445.219 168.748 445.807 168.916 446.32 169.252C446.834 169.579 447.24 170.027 447.538 170.596C447.846 171.156 448 171.791 448 172.5V172.892H442.386C442.461 173.284 442.606 173.634 442.82 173.942C443.044 174.25 443.324 174.493 443.66 174.67C444.006 174.847 444.379 174.936 444.78 174.936C445.126 174.936 445.457 174.885 445.774 174.782C446.101 174.67 446.372 174.511 446.586 174.306L447.482 175.188C447.062 175.505 446.628 175.743 446.18 175.902C445.742 176.051 445.256 176.126 444.724 176.126ZM442.4 171.842H446.614C446.558 171.469 446.428 171.142 446.222 170.862C446.026 170.573 445.779 170.349 445.48 170.19C445.191 170.022 444.874 169.938 444.528 169.938C444.174 169.938 443.847 170.017 443.548 170.176C443.25 170.335 442.998 170.559 442.792 170.848C442.596 171.128 442.466 171.459 442.4 171.842ZM449.334 176V168.874H450.734V169.784C450.958 169.448 451.233 169.187 451.56 169C451.896 168.804 452.274 168.706 452.694 168.706C452.983 168.715 453.221 168.757 453.408 168.832V170.092C453.277 170.036 453.142 169.999 453.002 169.98C452.862 169.952 452.722 169.938 452.582 169.938C452.171 169.938 451.807 170.05 451.49 170.274C451.172 170.489 450.92 170.806 450.734 171.226V176H449.334ZM457.581 176.126C456.89 176.126 456.363 175.967 455.999 175.65C455.635 175.323 455.453 174.852 455.453 174.236V170.05H453.941V168.874H455.453V167.054L456.839 166.718V168.874H458.939V170.05H456.839V173.914C456.839 174.278 456.918 174.539 457.077 174.698C457.245 174.847 457.516 174.922 457.889 174.922C458.085 174.922 458.258 174.908 458.407 174.88C458.566 174.852 458.734 174.81 458.911 174.754V175.93C458.724 175.995 458.505 176.042 458.253 176.07C458.01 176.107 457.786 176.126 457.581 176.126ZM459.971 176V168.874H461.371V176H459.971ZM460.671 167.726C460.437 167.726 460.237 167.642 460.069 167.474C459.901 167.297 459.817 167.091 459.817 166.858C459.817 166.615 459.901 166.415 460.069 166.256C460.237 166.088 460.437 166.004 460.671 166.004C460.913 166.004 461.119 166.088 461.287 166.256C461.455 166.415 461.539 166.615 461.539 166.858C461.539 167.091 461.455 167.297 461.287 167.474C461.119 167.642 460.913 167.726 460.671 167.726ZM465.469 176.14C464.853 176.14 464.275 176.051 463.733 175.874C463.201 175.687 462.739 175.426 462.347 175.09L463.117 174.166C463.481 174.455 463.855 174.679 464.237 174.838C464.629 174.987 465.026 175.062 465.427 175.062C465.931 175.062 466.342 174.964 466.659 174.768C466.977 174.572 467.135 174.315 467.135 173.998C467.135 173.737 467.042 173.531 466.855 173.382C466.669 173.233 466.379 173.13 465.987 173.074L464.699 172.892C463.99 172.789 463.458 172.57 463.103 172.234C462.749 171.898 462.571 171.45 462.571 170.89C462.571 170.461 462.688 170.087 462.921 169.77C463.155 169.443 463.481 169.191 463.901 169.014C464.321 168.827 464.811 168.734 465.371 168.734C465.885 168.734 466.379 168.809 466.855 168.958C467.331 169.107 467.789 169.341 468.227 169.658L467.513 170.582C467.121 170.321 466.739 170.129 466.365 170.008C466.001 169.887 465.633 169.826 465.259 169.826C464.83 169.826 464.485 169.919 464.223 170.106C463.962 170.283 463.831 170.517 463.831 170.806C463.831 171.067 463.92 171.273 464.097 171.422C464.284 171.562 464.587 171.66 465.007 171.716L466.295 171.898C467.005 172.001 467.541 172.22 467.905 172.556C468.269 172.883 468.451 173.326 468.451 173.886C468.451 174.315 468.321 174.703 468.059 175.048C467.798 175.384 467.443 175.65 466.995 175.846C466.547 176.042 466.039 176.14 465.469 176.14ZM473.012 176.126C472.312 176.126 471.677 175.963 471.108 175.636C470.548 175.309 470.1 174.866 469.764 174.306C469.437 173.746 469.274 173.121 469.274 172.43C469.274 171.749 469.432 171.133 469.75 170.582C470.067 170.022 470.496 169.579 471.038 169.252C471.579 168.916 472.181 168.748 472.844 168.748C473.506 168.748 474.094 168.916 474.608 169.252C475.121 169.579 475.527 170.027 475.826 170.596C476.134 171.156 476.288 171.791 476.288 172.5V172.892H470.674C470.748 173.284 470.893 173.634 471.108 173.942C471.332 174.25 471.612 174.493 471.948 174.67C472.293 174.847 472.666 174.936 473.068 174.936C473.413 174.936 473.744 174.885 474.062 174.782C474.388 174.67 474.659 174.511 474.874 174.306L475.77 175.188C475.35 175.505 474.916 175.743 474.468 175.902C474.029 176.051 473.544 176.126 473.012 176.126ZM470.688 171.842H474.902C474.846 171.469 474.715 171.142 474.51 170.862C474.314 170.573 474.066 170.349 473.768 170.19C473.478 170.022 473.161 169.938 472.816 169.938C472.461 169.938 472.134 170.017 471.836 170.176C471.537 170.335 471.285 170.559 471.08 170.848C470.884 171.128 470.753 171.459 470.688 171.842Z" fill="#151B26"/>
<path d="M66 313C66 300.297 76.2975 290 89 290H190C202.703 290 213 300.297 213 313C213 325.703 202.703 336 190 336H89C76.2975 336 66 325.703 66 313Z" fill="white"/>
<path d="M190 287.5C204.083 287.5 215.5 298.917 215.5 313C215.5 327.083 204.083 338.5 190 338.5H89C74.9167 338.5 63.5 327.083 63.5 313C63.5 298.917 74.9167 287.5 89 287.5H190Z" stroke="white" stroke-opacity="0.1" stroke-width="5"/>
<path d="M78.994 318V308.2H83.53C84.174 308.2 84.734 308.326 85.21 308.578C85.686 308.821 86.0593 309.161 86.33 309.6C86.6007 310.039 86.736 310.547 86.736 311.126C86.736 311.705 86.6007 312.213 86.33 312.652C86.0593 313.091 85.6813 313.436 85.196 313.688C84.72 313.931 84.1647 314.052 83.53 314.052H80.464V318H78.994ZM80.464 312.806H83.376C83.9547 312.806 84.412 312.657 84.748 312.358C85.0933 312.05 85.266 311.644 85.266 311.14C85.266 310.636 85.0933 310.235 84.748 309.936C84.412 309.637 83.9547 309.488 83.376 309.488H80.464V312.806ZM89.9667 318.126C89.4534 318.126 89.0007 318.037 88.6087 317.86C88.2167 317.673 87.9087 317.417 87.6847 317.09C87.4607 316.763 87.3487 316.385 87.3487 315.956C87.3487 315.284 87.6054 314.757 88.1187 314.374C88.6321 313.982 89.3367 313.786 90.2327 313.786C90.9327 313.786 91.5814 313.921 92.1787 314.192V313.436C92.1787 312.923 92.0294 312.54 91.7307 312.288C91.4414 312.036 91.0121 311.91 90.4427 311.91C90.1161 311.91 89.7754 311.961 89.4207 312.064C89.0661 312.157 88.6694 312.307 88.2307 312.512L87.7127 311.462C88.2541 311.21 88.7581 311.028 89.2247 310.916C89.6914 310.795 90.1627 310.734 90.6387 310.734C91.5627 310.734 92.2767 310.953 92.7807 311.392C93.2941 311.831 93.5507 312.456 93.5507 313.268V318H92.1787V317.384C91.8614 317.636 91.5207 317.823 91.1567 317.944C90.7927 318.065 90.3961 318.126 89.9667 318.126ZM88.6927 315.928C88.6927 316.273 88.8374 316.553 89.1267 316.768C89.4254 316.983 89.8127 317.09 90.2887 317.09C90.6621 317.09 91.0027 317.034 91.3107 316.922C91.6281 316.81 91.9174 316.637 92.1787 316.404V315.2C91.9081 315.041 91.6234 314.929 91.3247 314.864C91.0354 314.789 90.7087 314.752 90.3447 314.752C89.8314 314.752 89.4254 314.859 89.1267 315.074C88.8374 315.279 88.6927 315.564 88.6927 315.928ZM94.7439 318V316.964L98.7479 312.078H94.7859V310.874H100.498V311.896L96.4939 316.796H100.568V318H94.7439ZM104.103 318.126C103.59 318.126 103.137 318.037 102.745 317.86C102.353 317.673 102.045 317.417 101.821 317.09C101.597 316.763 101.485 316.385 101.485 315.956C101.485 315.284 101.742 314.757 102.255 314.374C102.769 313.982 103.473 313.786 104.369 313.786C105.069 313.786 105.718 313.921 106.315 314.192V313.436C106.315 312.923 106.166 312.54 105.867 312.288C105.578 312.036 105.149 311.91 104.579 311.91C104.253 311.91 103.912 311.961 103.557 312.064C103.203 312.157 102.806 312.307 102.367 312.512L101.849 311.462C102.391 311.21 102.895 311.028 103.361 310.916C103.828 310.795 104.299 310.734 104.775 310.734C105.699 310.734 106.413 310.953 106.917 311.392C107.431 311.831 107.687 312.456 107.687 313.268V318H106.315V317.384C105.998 317.636 105.657 317.823 105.293 317.944C104.929 318.065 104.533 318.126 104.103 318.126ZM102.829 315.928C102.829 316.273 102.974 316.553 103.263 316.768C103.562 316.983 103.949 317.09 104.425 317.09C104.799 317.09 105.139 317.034 105.447 316.922C105.765 316.81 106.054 316.637 106.315 316.404V315.2C106.045 315.041 105.76 314.929 105.461 314.864C105.172 314.789 104.845 314.752 104.481 314.752C103.968 314.752 103.562 314.859 103.263 315.074C102.974 315.279 102.829 315.564 102.829 315.928ZM109.301 318V310.874H110.701V311.784C110.925 311.448 111.2 311.187 111.527 311C111.863 310.804 112.241 310.706 112.661 310.706C112.95 310.715 113.188 310.757 113.375 310.832V312.092C113.244 312.036 113.109 311.999 112.969 311.98C112.829 311.952 112.689 311.938 112.549 311.938C112.138 311.938 111.774 312.05 111.457 312.274C111.139 312.489 110.887 312.806 110.701 313.226V318H109.301ZM116.449 318.126C115.936 318.126 115.483 318.037 115.091 317.86C114.699 317.673 114.391 317.417 114.167 317.09C113.943 316.763 113.831 316.385 113.831 315.956C113.831 315.284 114.088 314.757 114.601 314.374C115.114 313.982 115.819 313.786 116.715 313.786C117.415 313.786 118.064 313.921 118.661 314.192V313.436C118.661 312.923 118.512 312.54 118.213 312.288C117.924 312.036 117.494 311.91 116.925 311.91C116.598 311.91 116.258 311.961 115.903 312.064C115.548 312.157 115.152 312.307 114.713 312.512L114.195 311.462C114.736 311.21 115.24 311.028 115.707 310.916C116.174 310.795 116.645 310.734 117.121 310.734C118.045 310.734 118.759 310.953 119.263 311.392C119.776 311.831 120.033 312.456 120.033 313.268V318H118.661V317.384C118.344 317.636 118.003 317.823 117.639 317.944C117.275 318.065 116.878 318.126 116.449 318.126ZM115.175 315.928C115.175 316.273 115.32 316.553 115.609 316.768C115.908 316.983 116.295 317.09 116.771 317.09C117.144 317.09 117.485 317.034 117.793 316.922C118.11 316.81 118.4 316.637 118.661 316.404V315.2C118.39 315.041 118.106 314.929 117.807 314.864C117.518 314.789 117.191 314.752 116.827 314.752C116.314 314.752 115.908 314.859 115.609 315.074C115.32 315.279 115.175 315.564 115.175 315.928ZM129.416 318.154C128.707 318.154 128.044 318.028 127.428 317.776C126.812 317.515 126.266 317.155 125.79 316.698C125.323 316.231 124.959 315.695 124.698 315.088C124.446 314.472 124.32 313.809 124.32 313.1C124.32 312.391 124.446 311.733 124.698 311.126C124.959 310.51 125.323 309.973 125.79 309.516C126.266 309.049 126.812 308.69 127.428 308.438C128.044 308.177 128.707 308.046 129.416 308.046C130.125 308.046 130.788 308.177 131.404 308.438C132.029 308.69 132.575 309.049 133.042 309.516C133.509 309.973 133.873 310.51 134.134 311.126C134.395 311.733 134.526 312.391 134.526 313.1C134.526 313.809 134.395 314.472 134.134 315.088C133.873 315.695 133.509 316.231 133.042 316.698C132.575 317.155 132.029 317.515 131.404 317.776C130.788 318.028 130.125 318.154 129.416 318.154ZM129.43 316.796C129.934 316.796 130.401 316.703 130.83 316.516C131.269 316.329 131.651 316.073 131.978 315.746C132.305 315.41 132.561 315.018 132.748 314.57C132.935 314.113 133.028 313.623 133.028 313.1C133.028 312.568 132.935 312.078 132.748 311.63C132.561 311.182 132.305 310.795 131.978 310.468C131.651 310.132 131.269 309.871 130.83 309.684C130.401 309.497 129.934 309.404 129.43 309.404C128.917 309.404 128.441 309.497 128.002 309.684C127.563 309.871 127.181 310.132 126.854 310.468C126.527 310.795 126.271 311.182 126.084 311.63C125.907 312.078 125.818 312.563 125.818 313.086C125.818 313.618 125.907 314.113 126.084 314.57C126.271 315.018 126.527 315.41 126.854 315.746C127.181 316.073 127.563 316.329 128.002 316.516C128.441 316.703 128.917 316.796 129.43 316.796ZM128.072 306.814C127.839 306.814 127.643 306.739 127.484 306.59C127.325 306.431 127.246 306.235 127.246 306.002C127.246 305.769 127.325 305.577 127.484 305.428C127.643 305.269 127.839 305.19 128.072 305.19C128.305 305.19 128.501 305.269 128.66 305.428C128.819 305.577 128.898 305.769 128.898 306.002C128.898 306.226 128.819 306.417 128.66 306.576C128.501 306.735 128.305 306.814 128.072 306.814ZM130.788 306.814C130.555 306.814 130.359 306.739 130.2 306.59C130.041 306.431 129.962 306.235 129.962 306.002C129.962 305.769 130.041 305.577 130.2 305.428C130.359 305.269 130.555 305.19 130.788 305.19C131.021 305.19 131.217 305.269 131.376 305.428C131.535 305.577 131.614 305.769 131.614 306.002C131.614 306.226 131.535 306.417 131.376 306.576C131.217 306.735 131.021 306.814 130.788 306.814ZM135.486 318V316.964L139.49 312.078H135.528V310.874H141.24V311.896L137.236 316.796H141.31V318H135.486ZM145.803 318.126C145.103 318.126 144.468 317.963 143.899 317.636C143.339 317.309 142.891 316.866 142.555 316.306C142.228 315.746 142.065 315.121 142.065 314.43C142.065 313.749 142.223 313.133 142.541 312.582C142.858 312.022 143.287 311.579 143.829 311.252C144.37 310.916 144.972 310.748 145.635 310.748C146.297 310.748 146.885 310.916 147.399 311.252C147.912 311.579 148.318 312.027 148.617 312.596C148.925 313.156 149.079 313.791 149.079 314.5V314.892H143.465C143.539 315.284 143.684 315.634 143.899 315.942C144.123 316.25 144.403 316.493 144.739 316.67C145.084 316.847 145.457 316.936 145.859 316.936C146.204 316.936 146.535 316.885 146.853 316.782C147.179 316.67 147.45 316.511 147.665 316.306L148.561 317.188C148.141 317.505 147.707 317.743 147.259 317.902C146.82 318.051 146.335 318.126 145.803 318.126ZM143.479 313.842H147.693C147.637 313.469 147.506 313.142 147.301 312.862C147.105 312.573 146.857 312.349 146.559 312.19C146.269 312.022 145.952 311.938 145.607 311.938C145.252 311.938 144.925 312.017 144.627 312.176C144.328 312.335 144.076 312.559 143.871 312.848C143.675 313.128 143.544 313.459 143.479 313.842ZM150.412 318V308.2L151.812 307.934V318H150.412ZM159.873 318.14C159.089 318.14 158.333 317.986 157.605 317.678C156.877 317.37 156.233 316.936 155.673 316.376L156.569 315.34C157.101 315.863 157.642 316.25 158.193 316.502C158.753 316.754 159.336 316.88 159.943 316.88C160.419 316.88 160.834 316.815 161.189 316.684C161.553 316.544 161.833 316.348 162.029 316.096C162.225 315.844 162.323 315.559 162.323 315.242C162.323 314.803 162.169 314.467 161.861 314.234C161.553 314.001 161.044 313.823 160.335 313.702L158.697 313.436C157.801 313.277 157.129 312.988 156.681 312.568C156.242 312.148 156.023 311.588 156.023 310.888C156.023 310.328 156.172 309.838 156.471 309.418C156.769 308.989 157.189 308.657 157.731 308.424C158.281 308.191 158.916 308.074 159.635 308.074C160.344 308.074 161.039 308.191 161.721 308.424C162.411 308.648 163.032 308.975 163.583 309.404L162.771 310.524C161.716 309.721 160.647 309.32 159.565 309.32C159.135 309.32 158.762 309.381 158.445 309.502C158.127 309.623 157.88 309.796 157.703 310.02C157.525 310.235 157.437 310.487 157.437 310.776C157.437 311.177 157.572 311.485 157.843 311.7C158.113 311.905 158.561 312.055 159.187 312.148L160.769 312.414C161.805 312.582 162.565 312.885 163.051 313.324C163.536 313.763 163.779 314.365 163.779 315.13C163.779 315.727 163.615 316.255 163.289 316.712C162.962 317.16 162.505 317.51 161.917 317.762C161.329 318.014 160.647 318.14 159.873 318.14ZM167.819 318.126C167.129 318.126 166.601 317.967 166.237 317.65C165.873 317.323 165.691 316.852 165.691 316.236V312.05H164.179V310.874H165.691V309.054L167.077 308.718V310.874H169.177V312.05H167.077V315.914C167.077 316.278 167.157 316.539 167.315 316.698C167.483 316.847 167.754 316.922 168.127 316.922C168.323 316.922 168.496 316.908 168.645 316.88C168.804 316.852 168.972 316.81 169.149 316.754V317.93C168.963 317.995 168.743 318.042 168.491 318.07C168.249 318.107 168.025 318.126 167.819 318.126ZM170.209 318V310.874H171.609V311.784C171.833 311.448 172.108 311.187 172.435 311C172.771 310.804 173.149 310.706 173.569 310.706C173.858 310.715 174.096 310.757 174.283 310.832V312.092C174.152 312.036 174.017 311.999 173.877 311.98C173.737 311.952 173.597 311.938 173.457 311.938C173.046 311.938 172.682 312.05 172.365 312.274C172.047 312.489 171.795 312.806 171.609 313.226V318H170.209ZM177.357 318.126C176.844 318.126 176.391 318.037 175.999 317.86C175.607 317.673 175.299 317.417 175.075 317.09C174.851 316.763 174.739 316.385 174.739 315.956C174.739 315.284 174.996 314.757 175.509 314.374C176.023 313.982 176.727 313.786 177.623 313.786C178.323 313.786 178.972 313.921 179.569 314.192V313.436C179.569 312.923 179.42 312.54 179.121 312.288C178.832 312.036 178.403 311.91 177.833 311.91C177.507 311.91 177.166 311.961 176.811 312.064C176.457 312.157 176.06 312.307 175.621 312.512L175.103 311.462C175.645 311.21 176.149 311.028 176.615 310.916C177.082 310.795 177.553 310.734 178.029 310.734C178.953 310.734 179.667 310.953 180.171 311.392C180.685 311.831 180.941 312.456 180.941 313.268V318H179.569V317.384C179.252 317.636 178.911 317.823 178.547 317.944C178.183 318.065 177.787 318.126 177.357 318.126ZM176.083 315.928C176.083 316.273 176.228 316.553 176.517 316.768C176.816 316.983 177.203 317.09 177.679 317.09C178.053 317.09 178.393 317.034 178.701 316.922C179.019 316.81 179.308 316.637 179.569 316.404V315.2C179.299 315.041 179.014 314.929 178.715 314.864C178.426 314.789 178.099 314.752 177.735 314.752C177.222 314.752 176.816 314.859 176.517 315.074C176.228 315.279 176.083 315.564 176.083 315.928ZM185.401 318.126C184.711 318.126 184.183 317.967 183.819 317.65C183.455 317.323 183.273 316.852 183.273 316.236V312.05H181.761V310.874H183.273V309.054L184.659 308.718V310.874H186.759V312.05H184.659V315.914C184.659 316.278 184.739 316.539 184.897 316.698C185.065 316.847 185.336 316.922 185.709 316.922C185.905 316.922 186.078 316.908 186.227 316.88C186.386 316.852 186.554 316.81 186.731 316.754V317.93C186.545 317.995 186.325 318.042 186.073 318.07C185.831 318.107 185.607 318.126 185.401 318.126ZM191.084 318.126C190.384 318.126 189.749 317.963 189.18 317.636C188.62 317.309 188.172 316.866 187.836 316.306C187.509 315.746 187.346 315.121 187.346 314.43C187.346 313.749 187.504 313.133 187.822 312.582C188.139 312.022 188.568 311.579 189.11 311.252C189.651 310.916 190.253 310.748 190.916 310.748C191.578 310.748 192.166 310.916 192.68 311.252C193.193 311.579 193.599 312.027 193.898 312.596C194.206 313.156 194.36 313.791 194.36 314.5V314.892H188.746C188.82 315.284 188.965 315.634 189.18 315.942C189.404 316.25 189.684 316.493 190.02 316.67C190.365 316.847 190.738 316.936 191.14 316.936C191.485 316.936 191.816 316.885 192.134 316.782C192.46 316.67 192.731 316.511 192.946 316.306L193.842 317.188C193.422 317.505 192.988 317.743 192.54 317.902C192.101 318.051 191.616 318.126 191.084 318.126ZM188.76 313.842H192.974C192.918 313.469 192.787 313.142 192.582 312.862C192.386 312.573 192.138 312.349 191.84 312.19C191.55 312.022 191.233 311.938 190.888 311.938C190.533 311.938 190.206 312.017 189.908 312.176C189.609 312.335 189.357 312.559 189.152 312.848C188.956 313.128 188.825 313.459 188.76 313.842ZM196.393 309.726C196.16 309.726 195.959 309.642 195.791 309.474C195.623 309.297 195.539 309.091 195.539 308.858C195.539 308.615 195.623 308.415 195.791 308.256C195.959 308.088 196.16 308.004 196.393 308.004C196.636 308.004 196.841 308.088 197.009 308.256C197.177 308.415 197.261 308.615 197.261 308.858C197.261 309.091 197.177 309.297 197.009 309.474C196.841 309.642 196.636 309.726 196.393 309.726ZM195.063 320.996C194.914 320.996 194.769 320.982 194.629 320.954C194.48 320.935 194.359 320.917 194.265 320.898V319.778C194.424 319.815 194.611 319.834 194.825 319.834C195.133 319.834 195.353 319.764 195.483 319.624C195.623 319.493 195.693 319.274 195.693 318.966V310.874H197.093V319.064C197.093 319.68 196.916 320.156 196.561 320.492C196.216 320.828 195.717 320.996 195.063 320.996ZM198.742 318V310.874H200.142V318H198.742ZM199.442 309.726C199.209 309.726 199.008 309.642 198.84 309.474C198.672 309.297 198.588 309.091 198.588 308.858C198.588 308.615 198.672 308.415 198.84 308.256C199.008 308.088 199.209 308.004 199.442 308.004C199.685 308.004 199.89 308.088 200.058 308.256C200.226 308.415 200.31 308.615 200.31 308.858C200.31 309.091 200.226 309.297 200.058 309.474C199.89 309.642 199.685 309.726 199.442 309.726Z" fill="#151B26"/>
<path d="M322 349C322 336.297 332.297 326 345 326H430C442.703 326 453 336.297 453 349C453 361.703 442.703 372 430 372H345C332.297 372 322 361.703 322 349Z" fill="white"/>
<path d="M430 323.5C444.083 323.5 455.5 334.917 455.5 349C455.5 363.083 444.083 374.5 430 374.5H345C330.917 374.5 319.5 363.083 319.5 349C319.5 334.917 330.917 323.5 345 323.5H430Z" stroke="white" stroke-opacity="0.1" stroke-width="5"/>
<path d="M337.682 354V345.502H334.238V344.2H342.596V345.502H339.152V354H337.682ZM343.002 354V346.874H344.402V347.784C344.626 347.448 344.901 347.187 345.228 347C345.564 346.804 345.942 346.706 346.362 346.706C346.651 346.715 346.889 346.757 347.076 346.832V348.092C346.945 348.036 346.81 347.999 346.67 347.98C346.53 347.952 346.39 347.938 346.25 347.938C345.839 347.938 345.475 348.05 345.158 348.274C344.84 348.489 344.588 348.806 344.402 349.226V354H343.002ZM350.859 354.14C350.309 354.14 349.823 354.023 349.403 353.79C348.983 353.557 348.657 353.23 348.423 352.81C348.19 352.381 348.073 351.891 348.073 351.34V346.874H349.459V351.102C349.459 351.662 349.618 352.105 349.935 352.432C350.262 352.759 350.696 352.922 351.237 352.922C351.62 352.922 351.961 352.843 352.259 352.684C352.558 352.516 352.801 352.283 352.987 351.984V346.874H354.387V354H352.987V353.272C352.437 353.851 351.727 354.14 350.859 354.14ZM359.461 354.126C358.761 354.126 358.126 353.963 357.557 353.636C356.997 353.309 356.549 352.866 356.213 352.306C355.886 351.746 355.723 351.121 355.723 350.43C355.723 349.749 355.881 349.133 356.199 348.582C356.516 348.022 356.945 347.579 357.487 347.252C358.028 346.916 358.63 346.748 359.293 346.748C359.955 346.748 360.543 346.916 361.057 347.252C361.57 347.579 361.976 348.027 362.275 348.596C362.583 349.156 362.737 349.791 362.737 350.5V350.892H357.123C357.197 351.284 357.342 351.634 357.557 351.942C357.781 352.25 358.061 352.493 358.397 352.67C358.742 352.847 359.115 352.936 359.517 352.936C359.862 352.936 360.193 352.885 360.511 352.782C360.837 352.67 361.108 352.511 361.323 352.306L362.219 353.188C361.799 353.505 361.365 353.743 360.917 353.902C360.478 354.051 359.993 354.126 359.461 354.126ZM357.137 349.842H361.351C361.295 349.469 361.164 349.142 360.959 348.862C360.763 348.573 360.515 348.349 360.217 348.19C359.927 348.022 359.61 347.938 359.265 347.938C358.91 347.938 358.583 348.017 358.285 348.176C357.986 348.335 357.734 348.559 357.529 348.848C357.333 349.128 357.202 349.459 357.137 349.842ZM367.164 354V344.2H371.7C372.344 344.2 372.904 344.326 373.38 344.578C373.856 344.821 374.229 345.161 374.5 345.6C374.771 346.039 374.906 346.547 374.906 347.126C374.906 347.705 374.771 348.213 374.5 348.652C374.229 349.091 373.851 349.436 373.366 349.688C372.89 349.931 372.335 350.052 371.7 350.052H368.634V354H367.164ZM368.634 348.806H371.546C372.125 348.806 372.582 348.657 372.918 348.358C373.263 348.05 373.436 347.644 373.436 347.14C373.436 346.636 373.263 346.235 372.918 345.936C372.582 345.637 372.125 345.488 371.546 345.488H368.634V348.806ZM378.137 354.126C377.623 354.126 377.171 354.037 376.779 353.86C376.387 353.673 376.079 353.417 375.855 353.09C375.631 352.763 375.519 352.385 375.519 351.956C375.519 351.284 375.775 350.757 376.289 350.374C376.802 349.982 377.507 349.786 378.403 349.786C379.103 349.786 379.751 349.921 380.349 350.192V349.436C380.349 348.923 380.199 348.54 379.901 348.288C379.611 348.036 379.182 347.91 378.613 347.91C378.286 347.91 377.945 347.961 377.591 348.064C377.236 348.157 376.839 348.307 376.401 348.512L375.883 347.462C376.424 347.21 376.928 347.028 377.395 346.916C377.861 346.795 378.333 346.734 378.809 346.734C379.733 346.734 380.447 346.953 380.951 347.392C381.464 347.831 381.721 348.456 381.721 349.268V354H380.349V353.384C380.031 353.636 379.691 353.823 379.327 353.944C378.963 354.065 378.566 354.126 378.137 354.126ZM376.863 351.928C376.863 352.273 377.007 352.553 377.297 352.768C377.595 352.983 377.983 353.09 378.459 353.09C378.832 353.09 379.173 353.034 379.481 352.922C379.798 352.81 380.087 352.637 380.349 352.404V351.2C380.078 351.041 379.793 350.929 379.495 350.864C379.205 350.789 378.879 350.752 378.515 350.752C378.001 350.752 377.595 350.859 377.297 351.074C377.007 351.279 376.863 351.564 376.863 351.928ZM383.334 354V346.874H384.734V347.784C384.958 347.448 385.233 347.187 385.56 347C385.896 346.804 386.274 346.706 386.694 346.706C386.983 346.715 387.221 346.757 387.408 346.832V348.092C387.277 348.036 387.142 347.999 387.002 347.98C386.862 347.952 386.722 347.938 386.582 347.938C386.171 347.938 385.807 348.05 385.49 348.274C385.172 348.489 384.92 348.806 384.734 349.226V354H383.334ZM391.581 354.126C390.89 354.126 390.363 353.967 389.999 353.65C389.635 353.323 389.453 352.852 389.453 352.236V348.05H387.941V346.874H389.453V345.054L390.839 344.718V346.874H392.939V348.05H390.839V351.914C390.839 352.278 390.918 352.539 391.077 352.698C391.245 352.847 391.516 352.922 391.889 352.922C392.085 352.922 392.258 352.908 392.407 352.88C392.566 352.852 392.734 352.81 392.911 352.754V353.93C392.724 353.995 392.505 354.042 392.253 354.07C392.01 354.107 391.786 354.126 391.581 354.126ZM393.971 354V346.874H395.371V347.602C395.921 347.023 396.635 346.734 397.513 346.734C398.063 346.734 398.544 346.851 398.955 347.084C399.375 347.317 399.701 347.644 399.935 348.064C400.177 348.484 400.299 348.969 400.299 349.52V354H398.899V349.758C398.899 349.198 398.74 348.759 398.423 348.442C398.115 348.115 397.681 347.952 397.121 347.952C396.747 347.952 396.411 348.031 396.113 348.19C395.814 348.349 395.567 348.577 395.371 348.876V354H393.971ZM405.33 354.126C404.63 354.126 403.995 353.963 403.426 353.636C402.866 353.309 402.418 352.866 402.082 352.306C401.755 351.746 401.592 351.121 401.592 350.43C401.592 349.749 401.751 349.133 402.068 348.582C402.385 348.022 402.815 347.579 403.356 347.252C403.897 346.916 404.499 346.748 405.162 346.748C405.825 346.748 406.413 346.916 406.926 347.252C407.439 347.579 407.845 348.027 408.144 348.596C408.452 349.156 408.606 349.791 408.606 350.5V350.892H402.992C403.067 351.284 403.211 351.634 403.426 351.942C403.65 352.25 403.93 352.493 404.266 352.67C404.611 352.847 404.985 352.936 405.386 352.936C405.731 352.936 406.063 352.885 406.38 352.782C406.707 352.67 406.977 352.511 407.192 352.306L408.088 353.188C407.668 353.505 407.234 353.743 406.786 353.902C406.347 354.051 405.862 354.126 405.33 354.126ZM403.006 349.842H407.22C407.164 349.469 407.033 349.142 406.828 348.862C406.632 348.573 406.385 348.349 406.086 348.19C405.797 348.022 405.479 347.938 405.134 347.938C404.779 347.938 404.453 348.017 404.154 348.176C403.855 348.335 403.603 348.559 403.398 348.848C403.202 349.128 403.071 349.459 403.006 349.842ZM409.939 354V346.874H411.339V347.784C411.563 347.448 411.839 347.187 412.165 347C412.501 346.804 412.879 346.706 413.299 346.706C413.589 346.715 413.827 346.757 414.013 346.832V348.092C413.883 348.036 413.747 347.999 413.607 347.98C413.467 347.952 413.327 347.938 413.187 347.938C412.777 347.938 412.413 348.05 412.095 348.274C411.778 348.489 411.526 348.806 411.339 349.226V354H409.939ZM417.571 354.14C416.955 354.14 416.376 354.051 415.835 353.874C415.303 353.687 414.841 353.426 414.449 353.09L415.219 352.166C415.583 352.455 415.956 352.679 416.339 352.838C416.731 352.987 417.128 353.062 417.529 353.062C418.033 353.062 418.444 352.964 418.761 352.768C419.078 352.572 419.237 352.315 419.237 351.998C419.237 351.737 419.144 351.531 418.957 351.382C418.77 351.233 418.481 351.13 418.089 351.074L416.801 350.892C416.092 350.789 415.56 350.57 415.205 350.234C414.85 349.898 414.673 349.45 414.673 348.89C414.673 348.461 414.79 348.087 415.023 347.77C415.256 347.443 415.583 347.191 416.003 347.014C416.423 346.827 416.913 346.734 417.473 346.734C417.986 346.734 418.481 346.809 418.957 346.958C419.433 347.107 419.89 347.341 420.329 347.658L419.615 348.582C419.223 348.321 418.84 348.129 418.467 348.008C418.103 347.887 417.734 347.826 417.361 347.826C416.932 347.826 416.586 347.919 416.325 348.106C416.064 348.283 415.933 348.517 415.933 348.806C415.933 349.067 416.022 349.273 416.199 349.422C416.386 349.562 416.689 349.66 417.109 349.716L418.397 349.898C419.106 350.001 419.643 350.22 420.007 350.556C420.371 350.883 420.553 351.326 420.553 351.886C420.553 352.315 420.422 352.703 420.161 353.048C419.9 353.384 419.545 353.65 419.097 353.846C418.649 354.042 418.14 354.14 417.571 354.14ZM421.629 354V344.2L423.029 343.892V347.602C423.579 347.023 424.293 346.734 425.171 346.734C425.721 346.734 426.202 346.851 426.613 347.084C427.033 347.317 427.359 347.644 427.593 348.064C427.835 348.484 427.957 348.969 427.957 349.52V354H426.557V349.758C426.557 349.198 426.398 348.759 426.081 348.442C425.763 348.115 425.329 347.952 424.779 347.952C424.405 347.952 424.069 348.031 423.771 348.19C423.472 348.349 423.225 348.577 423.029 348.876V354H421.629ZM429.572 354V346.874H430.972V354H429.572ZM430.272 345.726C430.039 345.726 429.838 345.642 429.67 345.474C429.502 345.297 429.418 345.091 429.418 344.858C429.418 344.615 429.502 344.415 429.67 344.256C429.838 344.088 430.039 344.004 430.272 344.004C430.515 344.004 430.72 344.088 430.888 344.256C431.056 344.415 431.14 344.615 431.14 344.858C431.14 345.091 431.056 345.297 430.888 345.474C430.72 345.642 430.515 345.726 430.272 345.726ZM432.621 356.856V346.874H434.007V347.56C434.604 347.028 435.332 346.762 436.191 346.762C436.863 346.762 437.47 346.925 438.011 347.252C438.562 347.579 438.996 348.017 439.313 348.568C439.63 349.119 439.789 349.739 439.789 350.43C439.789 351.121 439.626 351.746 439.299 352.306C438.982 352.857 438.548 353.295 437.997 353.622C437.456 353.949 436.844 354.112 436.163 354.112C435.771 354.112 435.393 354.051 435.029 353.93C434.665 353.799 434.329 353.617 434.021 353.384V356.856H432.621ZM436.009 352.894C436.466 352.894 436.872 352.787 437.227 352.572C437.591 352.357 437.88 352.068 438.095 351.704C438.31 351.331 438.417 350.911 438.417 350.444C438.417 349.977 438.31 349.557 438.095 349.184C437.88 348.811 437.591 348.517 437.227 348.302C436.872 348.087 436.466 347.98 436.009 347.98C435.608 347.98 435.234 348.055 434.889 348.204C434.544 348.353 434.254 348.563 434.021 348.834V352.054C434.254 352.315 434.544 352.521 434.889 352.67C435.244 352.819 435.617 352.894 436.009 352.894Z" fill="#151B26"/>
<path d="M131 206C131 192.745 141.745 182 155 182C168.255 182 179 192.745 179 206C179 219.255 168.255 230 155 230C141.745 230 131 219.255 131 206Z" fill="#F3CD02"/>
<path d="M155 179C169.912 179 182 191.088 182 206C182 220.912 169.912 233 155 233C140.088 233 128 220.912 128 206C128 191.088 140.088 179 155 179Z" stroke="white" stroke-opacity="0.1" stroke-width="6"/>
<path d="M145.996 209.751H148.331C148.685 209.752 149.024 209.611 149.274 209.361V209.361C149.524 209.111 149.665 208.772 149.665 208.418V203.082C149.665 202.728 149.524 202.388 149.274 202.138V202.138C149.024 201.888 148.685 201.748 148.331 201.748H146.003" stroke="#151B26" stroke-width="1.5" stroke-linecap="round" stroke-linejoin="round"/>
<path d="M163.996 201.748H161.669C161.316 201.748 160.976 201.888 160.726 202.138V202.138C160.476 202.388 160.336 202.728 160.336 203.082V208.418C160.336 208.772 160.476 209.111 160.726 209.361V209.361C160.976 209.611 161.316 209.752 161.669 209.751H163.996" stroke="#151B26" stroke-width="1.5" stroke-linecap="round" stroke-linejoin="round"/>
<rect x="145.996" y="196.996" width="18.0075" height="18.0075" rx="4.5355" stroke="#151B26" stroke-width="1.36065" stroke-linecap="round" stroke-linejoin="round"/>
<path d="M160.355 208.648H159.495C159.209 208.648 158.926 208.71 158.666 208.829L154.457 210.745" stroke="#151B26" stroke-width="1.36065" stroke-linecap="round" stroke-linejoin="round"/>
<path d="M153.645 202.667C153.139 202.366 152.525 202.304 151.969 202.499L149.668 203.328" stroke="#151B26" stroke-width="1.36065" stroke-linecap="round" stroke-linejoin="round"/>
<path d="M160.495 202.436L157.618 201.17C157.001 200.898 156.289 200.955 155.724 201.322L153.113 203.013C152.721 203.268 152.469 203.69 152.431 204.156C152.393 204.622 152.574 205.079 152.92 205.393V205.393C153.369 205.8 154.019 205.898 154.569 205.642L156.125 204.916" stroke="#151B26" stroke-width="1.36065" stroke-linecap="round" stroke-linejoin="round"/>
<path d="M156.126 204.914L156.917 205.631C157.334 206.009 157.573 206.546 157.574 207.109C157.576 207.672 157.34 208.209 156.925 208.59L154.907 210.436C154.145 211.134 152.978 211.137 152.213 210.443L150.826 209.186C150.497 208.893 150.08 208.717 149.641 208.686" stroke="#151B26" stroke-width="1.36065" stroke-linecap="round" stroke-linejoin="round"/>
<path d="M441 260C441 246.745 451.745 236 465 236C478.255 236 489 246.745 489 260C489 273.255 478.255 284 465 284C451.745 284 441 273.255 441 260Z" fill="#05CC85"/>
<path d="M465 233C479.912 233 492 245.088 492 260C492 274.912 479.912 287 465 287C450.088 287 438 274.912 438 260C438 245.088 450.088 233 465 233Z" stroke="white" stroke-opacity="0.1" stroke-width="6"/>
<path d="M472.559 255.119C474.479 258.089 474.478 261.913 472.56 264.882" stroke="#151B26" stroke-width="1.5" stroke-linecap="round" stroke-linejoin="round"/>
<path d="M468.549 256.452C470.508 258.411 470.508 261.588 468.549 263.547C466.59 265.506 463.413 265.506 461.454 263.547C459.495 261.588 459.495 258.411 461.454 256.452C463.413 254.493 466.59 254.493 468.549 256.452" stroke="#151B26" stroke-width="1.36065" stroke-linecap="round" stroke-linejoin="round"/>
<path d="M467.32 255.551L469.904 252.412C470.28 251.955 470.968 251.922 471.387 252.34L472.66 253.613C473.079 254.032 473.045 254.72 472.588 255.096L469.449 257.68" stroke="#151B26" stroke-width="1.36065" stroke-linecap="round" stroke-linejoin="round"/>
<path d="M462.681 264.449L460.097 267.588C459.721 268.045 459.033 268.078 458.614 267.66L457.341 266.387C456.922 265.968 456.956 265.28 457.413 264.904L460.552 262.32" stroke="#151B26" stroke-width="1.36065" stroke-linecap="round" stroke-linejoin="round"/>
<path d="M460.552 257.679L457.412 255.095C456.955 254.719 456.922 254.031 457.34 253.612L458.613 252.339C459.032 251.92 459.72 251.954 460.096 252.411L462.68 255.55" stroke="#151B26" stroke-width="1.36065" stroke-linecap="round" stroke-linejoin="round"/>
<path d="M469.449 262.32L472.588 264.904C473.045 265.28 473.078 265.968 472.66 266.387L471.387 267.66C470.968 268.079 470.28 268.045 469.904 267.588L467.32 264.449" stroke="#151B26" stroke-width="1.36065" stroke-linecap="round" stroke-linejoin="round"/>
<path d="M469.88 267.562C466.911 269.48 463.086 269.481 460.117 267.561" stroke="#151B26" stroke-width="1.36065" stroke-linecap="round" stroke-linejoin="round"/>
<path d="M457.439 255.117C455.521 258.086 455.52 261.91 457.44 264.88" stroke="#151B26" stroke-width="1.36065" stroke-linecap="round" stroke-linejoin="round"/>
<path d="M469.88 252.44C466.91 250.52 463.086 250.521 460.117 252.439" stroke="#151B26" stroke-width="1.36065" stroke-linecap="round" stroke-linejoin="round"/>
<defs>
<linearGradient id="paint0_linear_19805_31904" x1="277" y1="34" x2="277" y2="444" gradientUnits="userSpaceOnUse">
<stop stop-color="#333D52"/>
<stop offset="1" stop-color="#1F2634" stop-opacity="0"/>
</linearGradient>
<linearGradient id="paint1_linear_19805_31904" x1="277" y1="99" x2="277" y2="379" gradientUnits="userSpaceOnUse">
<stop stop-color="#424D63"/>
<stop offset="1" stop-color="#151B26"/>
</linearGradient>
<linearGradient id="paint2_linear_19805_31904" x1="277" y1="164" x2="277" y2="314" gradientUnits="userSpaceOnUse">
<stop stop-color="#424D63"/>
<stop offset="1" stop-color="#121821"/>
</linearGradient>
</defs>
</svg>
