<svg preserveAspectRatio="none" width="100%" height="100%" overflow="visible" style="display: block;" viewBox="0 0 141.999 26.9999" fill="none" xmlns="http://www.w3.org/2000/svg">
<path id="Combined Shape" d="M19.7131 0.30642C20.4457 -0.222917 21.4598 -0.0493404 21.9777 0.695092C22.2092 1.02753 22.3007 1.41765 22.2678 1.7947L22.0519 25.3699H22.05C22.0379 26.2798 21.3036 27.0093 20.4074 26.9998C19.856 26.9937 19.3726 26.7086 19.0832 26.2791V26.2879L11.0187 15.1365C10.8706 14.9312 11.1105 14.668 11.3225 14.8035L16.3498 18.0203C16.895 18.4036 17.6398 18.4219 18.2131 18.0076C18.6856 17.666 18.9238 17.1148 18.8957 16.5672L18.9728 8.11599H18.9719C18.9864 7.76377 18.8923 7.40408 18.6769 7.09451C18.1681 6.36361 17.1814 6.18459 16.4523 6.68044V6.67849L16.425 6.69802C16.4206 6.70125 16.4073 6.71074 16.4035 6.71365L2.56268 16.6287C1.83014 17.1581 0.81617 16.984 0.298036 16.24C-0.219718 15.4956 -0.0457162 14.4627 0.686708 13.9334L0.687684 13.9324L19.6398 0.365014C19.664 0.345307 19.6876 0.324989 19.7131 0.30642ZM79.2902 0.93142C79.6257 0.933936 79.9184 1.06247 80.1379 1.30251C80.3516 1.53669 80.4634 1.83932 80.4611 2.17849L80.3869 13.325L86.8488 6.9783C87.0726 6.74934 87.3603 6.62608 87.6564 6.62673C87.9887 6.62908 88.2803 6.76979 88.5002 7.03298C88.5422 7.08092 88.5765 7.13423 88.6027 7.19021C88.7565 7.40853 88.8283 7.66925 88.8107 7.95193C88.7902 8.27292 88.6617 8.55267 88.4387 8.7615L83.8312 13.2556L89.718 20.2967C89.9018 20.5072 90.0113 20.7911 90.0256 21.1092C90.0419 21.4705 89.9044 21.7979 89.6389 22.031C89.4034 22.2368 89.129 22.3455 88.8459 22.3455H88.8381C88.5167 22.3431 88.2256 22.2146 87.9973 21.9744L87.9728 21.947L82.1291 14.8963L80.3644 16.6179L80.3351 21.0301C80.3327 21.3737 80.2114 21.6773 79.9846 21.909C79.7581 22.1403 79.4688 22.2584 79.1476 22.2595C78.8262 22.2572 78.5353 22.1291 78.3068 21.8894C78.0787 21.6496 77.9587 21.3459 77.9611 21.0125L78.0871 2.16091C78.0894 1.80943 78.2211 1.5003 78.467 1.26736C78.7018 1.04515 78.9911 0.930418 79.2902 0.93142ZM125.963 0.93142C126.292 0.933593 126.586 1.06368 126.814 1.3074C127.036 1.5467 127.152 1.85153 127.15 2.18923L127.067 14.4451C127.048 15.5367 126.824 16.576 126.401 17.534C125.98 18.4861 125.408 19.33 124.7 20.0418C123.991 20.7547 123.151 21.3248 122.205 21.7351C121.271 22.14 120.265 22.3455 119.214 22.3455C119.195 22.3455 119.176 22.3448 119.157 22.3445C118.075 22.337 117.046 22.1141 116.1 21.6824C115.16 21.2537 114.329 20.6672 113.629 19.9383C112.93 19.2106 112.372 18.3497 111.97 17.3806C111.566 16.4054 111.365 15.3521 111.372 14.2498C111.38 13.1477 111.596 12.0977 112.013 11.1287C112.428 10.1646 112999 9.31391 113.708 8.60037C114.418 7.88645 115.259 7.31878 116.205 6.91384C117.156 6.50741 118.185 6.3053 119.266 6.31326C119.921 6.31794 120.567 6.4039 121.186 6.57009C121.8 6.73595 122.388 6.97137 122.933 7.27029C123.477 7.56953 123.987 7.93433 124.448 8.35525C124.539 8.43834 124.629 8.52417 124.716 8.61111L124.76 2.17263C124.762 1.84294 124.871 1.54517 125.076 1.31228C125.296 1.06298 125.599 0.93142 125.953 0.93142H125.963ZM50.6437 6.51736C51.7309 6.52495 52.7667 6.74188 53.7219 7.16189C54.6721 7.57997 55.5113 8.1544 56.215 8.86892C56.9197 9.58406 57.4789 10.4357 57.8781 11.3992C58.2784 12.3661 58.4773 13.4074 58.4699 14.4939C58.4623 15.5706 58.2489 16.6013 57.8351 17.5574C57.4227 18.5099 56.852 19.3527 56.1389 20.0623C55.425 20.7725 54.5775 21.3377 53.6203 21.7429C52.6767 22.1423 51.6585 22.3445 50.593 22.3445C50.5735 22.3445 50.554 22.3447 50.5344 22.3445C49.4577 22.3371 48.427 22.1202 47.4719 21.7C46.5207 21.2816 45.6789 20.7052 44.9709 19.9861C44.2625 19.2673 43.6987 18.4167 43.2941 17.4588C42.8879 16.4968 42.6851 15.462 42.6926 14.3836C42.7002 13.2958 42.9169 12.2568 43.3361 11.2957C43.7545 10.3376 44.3309 9.49435 45.05 8.78982C45.7678 8.08619 46.6173 7.52445 47.5734 7.1199C48.5342 6.71313 49.5643 6.50881 50.6437 6.51736ZM68.7951 6.51736C69.7499 6.52432 70.6832 6.70667 71.5685 7.05837C72.4673 7.41551 73.2412 7.9391 73.8693 8.61501C74.1181 8.87859 74.2503 9.19806 74.2482 9.53591C74.2459 9.88947 74.1055 10.2006 73.842 10.4353C73.6302 10.6368 73.3626 10.7448 73.0881 10.7459C72.8918 10.7446 72.7031 10.6924 72.5285 10.5906C72.3989 10.5151 72.2792 10.4263 72.173 10.3279C71.6961 9.86145 71.166 9.51529 70.5891 9.28982C70.0043 9.06143 69.3806 8.94291 68.7346 8.93826C68.0272 8.93182 67.3658 9.07347 66.7531 9.35525C66.1318 9.64146 65.5783 10.0342 65.1096 10.5213C64.6419 11.0069 64.2661 11.5846 63.9924 12.2381C63.7212 12.8863 63.5811 13.583 63.5764 14.3084V14.3142C63.576 14.3363 63.5738 14.3576 63.5715 14.3777C63.5738 14.4012 63.5755 14.4251 63.5754 14.449C63.5707 15.1561 63.6972 15.8458 63.9514 16.4988C64.2075 17.1577 64.5656 17.747 65.0148 18.2508C65.4621 18.7524 66.0011 19.1611 66.6174 19.4646C67.2239 19.7638 67.8918 19.9173 68.6017 19.9226C69.2563 19.9292 69.8933 19.8162 70.4904 19.5916C71.0791 19.3699 71.6226 19.0192 72.1047 18.5506L72.1193 18.5369C72.2241 18.4427 72.3447 18.3555 72.4777 18.2771C72.6612 18.1697 72.8532 18.1178 73.0539 18.117C73.3309 18.119 73.5941 18.2348 73.8156 18.451C74.0588 18.6905 74.1852 18.9984 74.1828 19.3435C74.1806 19.6815 74.0446 19.9997 73.7892 20.2625C73.1574 20.9238 72.3795 21.4451 71.4807 21.8093C70.6039 22.1647 69.6824 22.3445 68.7424 22.3445H68.6896C67.6668 22.3371 66.6882 22.1235 65.7814 21.7088C64.8792 21.2961 64.0815 20.7269 63.4113 20.0174C62.7414 19.3085 62.2074 18.4687 61.8244 17.5213C61.4396 16.5699 61.2481 15.5454 61.2551 14.4773L61.2619 14.3709C61.2581 14.3399 61.2567 14.3081 61.257 14.2771C61.2641 13.1986 61.4689 12.1747 61.8664 11.2332C62.2619 10.2974 62.807 9.46781 63.4865 8.76833C64.1659 8.06882 64.9712 7.51202 65.8791 7.11208C66.7914 6.71069 67.7749 6.5096 68.7951 6.51736ZM100.762 6.51736C101.848 6.52512 102.879 6.73948 103.824 7.15408C104.765 7.5672 105.598 8.13912 106.302 8.8533C107.005 9.56749 107.567 10.4092 107.971 11.3552C108.377 12.3064 108.585 13.3397 108.588 14.4265L108.543 20.95C108.541 21.2898 108.425 21.5919 108.209 21.823C107.985 22.0634 107.68 22.19 107.328 22.1902H107.318C106.967 22.1878 106.666 22.0535 106.446 21.8015C106.244 21.5701 106.139 21.2694 106.141 20.9334V20.075C106.055 20.158 105.968 20.2396 105.879 20.3191C105.41 20.7381 104.896 21.1017 104.353 21.3992C103.806 21.6981 103.215 21.9335 102.594 22.0994C101.984 22.2623 101.349 22.3445 100.704 22.3445C100.687 22.3445 100.67 22.3445 100.653 22.3445C99.5756 22.3369 98.5452 22.1202 97.59 21.7C96.6387 21.2816 95.7968 20.7054 95.0891 19.9861C94.3808 19.2673 93.8169 18.4166 93.4123 17.4588C93.0059 16.4965 92.8031 15.4617 92.8107 14.3836C92.8182 13.296 93.0349 12.257 93.4543 11.2957C93.8726 10.3377 94.449 9.49437 95.1682 8.78982C95.8855 8.08649 96.7347 7.52476 97.6906 7.1199C98.6515 6.71322 99.6881 6.51028 100.762 6.51736ZM136.506 6.51736C137.485 6.52414 138.399 6.71537 139.221 7.08474C140.084 7.47278 140.751 8.09409 141.204 8.93044L141.214 8.949C141.335 9.19525 141.376 9.44496 141.337 9.68923C141.296 9.93916 141.192 10.1476 141.027 10.3103C140.8 10.5332 140.526 10.6481 140.224 10.6482C140.056 10.6472 139.881 10.6 139.703 10.5095L139.59 10.4519L139.514 10.3494C139.12 9.81487 138.692 9.43645 138.242 9.22537C137.781 9.00915 137.217 8.89779 136.567 8.89333C136.213 8.89005 135.849 8.92575 135.483 8.99783C135.138 9.06615 134.823 9.17867 134.548 9.33279C134.293 9.47572 134.09 9.66182 133.928 9.90115C133.779 10.1205 133.706 10.396 133.703 10.7429C133.701 11.0456 133.759 11.2896 133.88 11.4881C134.016 11.7106 134.198 11.8992 134.436 12.0652C134.695 12.2466 135.003 12.4046 135.35 12.5349C135.725 12.6762 136.124 12.8103 136.535 12.9334C137.23 13.1488 137.896 13.3777 138.52 13.616C139.176 13.8665 139.762 14.1725 140.264 14.5242C140.79 14.8932 141.214 15.3371 141.522 15.8435C141.844 16.3732 142.004 17.0099 141.999 17.7361C141.994 18.4068 141.84 19.0373 141.539 19.6092C141.244 20.1704 140.837 20.6611 140.33 21.0681C139.832 21.4679 139.246 21.7862 138.59 22.0125C137.949 22.2334 137.258 22.3445 136.537 22.3445C136.521 22.3445 136.505 22.3447 136.488 22.3445C135.92 22.3405 135.355 22.2811 134.812 22.1677C134.26 22.0529 133.739 21.8764 133.263 21.6433C132.779 21.4065 132.342 21.1043 131.965 20.7459C131.582 20.3821 131.265 19.9498 131.025 19.4607C130.751 18.9061 130.874 18.5007 131.025 18.2586C131.237 17.9175 131.58 17.7303 131.99 17.7302H132C132.379 17.733 132.735 17.8913 133.029 18.1883L133.08 18.24L133.115 18.3045C133.411 18.8334 133.832 19.2303 134.403 19.5174C134.988 19.8121 135.7 19.9647 136.521 19.9705C136.923 19.9741 137.321 19.914 137.695 19.7957C138.066 19.6777 138.401 19.512 138.69 19.3025C138.967 19.1007 139.181 18.8664 139.343 18.5867C139.495 18.3228 139.57 18.0385 139.572 17.7185C139.574 17.4165 139.494 17.1619 139.326 16.9412C139.127 16.6805 138.85 16.4402 138.503 16.2263C138.131 15.9974 137.693 15.7914 137.201 15.616C136.684 15.432 136.131 15.2556 135.557 15.0906L135.535 15.0838C135.05 14.9219 134.559 14.733 134.077 14.5232C133.566 14.3001 133.101 14.0198 132.695 13.6892C132.273 13.345 131.929 12.9302 131.672 12.4568C131.405 11.9646 131.272 11.3819 131.277 10.7263C131.282 10.0058 131.446 9.36572 131.765 8.824C132.075 8.29667 132.487 7.85179 132.99 7.50271C133.481 7.16221 134.044 6.90777 134.661 6.74685C135.263 6.59009 135.883 6.51373 136.506 6.51736ZM39.6535 6.51833C40.1078 6.52153 40.3794 6.7088 40.5266 6.86501C40.7319 7.0837 40.8392 7.36951 40.8371 7.69216C40.8345 8.02745 40.7073 8.31976 40.4699 8.53689C40.2434 8.74344 39.9581 8.84793 39.6379 8.84939L39.4894 8.84744C38.7552 8.84328 38.0357 8.98479 37.3674 9.26931C36.6942 9.55597 36.0988 9.95428 35.5988 10.4539C35.0967 10.9552 34.69 11.5554 34.3898 12.2381C34.0921 12.9142 33.9381 13.6491 33.9328 14.4217L33.8928 20.241C33.8904 20.5649 33.776 20.8522 33.5627 21.072C33.3459 21.2955 33.0694 21.4138 32.7619 21.4138H32.7531C32.4204 21.4114 32.1261 21.2936 31.9025 21.074C31.6738 20.85 31.5533 20.5565 31.5558 20.2254L31.5959 14.4051C31.6036 13.3209 31.8206 12.286 32.2414 11.3299C32.6596 10.3795 33.231 9.53666 33.9387 8.82595C34.6465 8.11416 35.4869 7.54424 36.4357 7.13162C37.3904 6.71654 38.4194 6.51112 39.5051 6.51736L39.6535 6.51833ZM50.6271 8.93923C49.8658 8.93511 49.1491 9.07321 48.4826 9.35232C47.8132 9.63274 47.2242 10.0236 46.7326 10.5135C46.2399 11.0046 45.8429 11.5926 45.5529 12.2605C45.2648 12.924 45.1158 13.6442 45.1105 14.4011C45.1056 15.1375 45.2442 15.8467 45.5226 16.5086C45.8039 17.1767 46.1937 17.7714 46.6808 18.2752C47.1665 18.7775 47.7477 19.1813 48.4084 19.4754C49.0645 19.7678 49.7857 19.9183 50.551 19.9236C51.3264 19.9302 52.0537 19.7889 52.7141 19.5056C53.3793 19.2205 53.9658 18.8243 54.4582 18.3289C54.9514 17.8327 55.347 17.2448 55.632 16.5818C55.9157 15.9229 56.0615 15.2148 56.0666 14.4773C56.0717 13.719 55.9351 12.9958 55.6603 12.3279C55.3847 11.6572 54.9988 11.0644 54.5139 10.5672C54.0291 10.0708 53.4484 9.6717 52.7873 9.38162C52.1301 9.09361 51.4031 8.9447 50.6271 8.93923ZM100.745 8.93923C99.9931 8.93148 99.2673 9.07321 98.6008 9.35232C97.9314 9.63289 97.3423 10.0233 96.8508 10.5135C96.3582 11.0045 95.9612 11.5924 95.6711 12.2605C95.383 12.9239 95.234 13.6442 95.2287 14.4011C95.2238 15.1375 95.3622 15.847 95.6408 16.5086C95.9221 17.1772 96.3122 17.7718 96.799 18.2752C97.2847 18.7775 97.8659 19.1812 98.5266 19.4754C99.1827 19.7677 99.904 19.9185 100.669 19.9236C101.444 19.9313 102.172 19.7886 102.832 19.5056C103.497 19.2205 104.084 18.8244 104.576 18.3289C105.069 17.8327 105.465 17.2448 105.75 16.5818C106.034 15.923 106.18 15.2145 106.185 14.4773C106.19 13.7191 106.053 12.9959 105.779 12.3279C105.503 11.6574 105.117 11.0644 104.632 10.5672C104.147 10.0705 103.566 9.67154 102.905 9.38162C102.248 9.09364 101.521 8.94455 100.745 8.93923ZM119.207 8.7654C118.461 8.76542 117.756 8.90595 117.111 9.18337C116.448 9.46794 115.864 9.86222 115.374 10.3543C114.885 10.8455 114.494 11.434 114.21 12.1043C113.928 12.7719 113.783 13.5 113.778 14.2674C113.772 15.0145 113.909 15.737 114.182 16.4138C114.457 17.0957 114.84 17.6989 115.319 18.2078C115.797 18.7163 116.375 19.1283 117.037 19.4314C117.695 19.7323 118.414 19.887 119.174 19.8924C119.938 19.8972 120.652 19.7529 121.308 19.4617C121.971 19.167 122.559 18.7625 123.055 18.2595C123.55 17.7572 123.948 17.1586 124.237 16.4822C124.523 15.8101 124.672 15.0907 124.677 14.3445C124.682 13.5783 124.544 12.85 124.267 12.1795C123.988 11.505 123.6 10.9098 123.112 10.4109C122.624 9.91117 122.042 9.50807 121.383 9.21365C120.729 8.92176 120.011 8.77092 119.249 8.7654C119.235 8.7654 119.221 8.7654 119.207 8.7654Z" fill="white"/>
</svg>
