<svg width="79" height="82" viewBox="0 0 79 82" fill="none" xmlns="http://www.w3.org/2000/svg">
<rect width="78.8" height="82" rx="16" fill="#F5F4F4"/>
<path fill-rule="evenodd" clip-rule="evenodd" d="M60.9603 41.5021C60.9603 39.942 60.8203 38.442 60.5603 37.002H39.8398V45.5122H51.6801C51.1701 48.2622 49.6201 50.5923 47.29 52.1523V57.6724H54.4002C58.5603 53.8424 60.9603 48.2022 60.9603 41.5021Z" fill="#4285F4"/>
<path fill-rule="evenodd" clip-rule="evenodd" d="M39.8441 63.0001C45.7842 63.0001 50.7643 61.0301 54.4044 57.67L47.2942 52.1499C45.3242 53.4699 42.8041 54.2499 39.8441 54.2499C34.1139 54.2499 29.2638 50.3798 27.5338 45.1797H20.1836V50.8798C23.8037 58.07 31.2439 63.0001 39.8441 63.0001Z" fill="#34A853"/>
<path fill-rule="evenodd" clip-rule="evenodd" d="M27.5301 45.1795C27.0901 43.8594 26.8401 42.4494 26.8401 40.9994C26.8401 39.5493 27.0901 38.1393 27.5301 36.8193V31.1191H20.1799C18.6899 34.0892 17.8398 37.4493 17.8398 40.9994C17.8398 44.5495 18.6899 47.9095 20.1799 50.8796L27.5301 45.1795Z" fill="#FBBC05"/>
<path fill-rule="evenodd" clip-rule="evenodd" d="M39.8441 27.7502C43.0741 27.7502 45.9742 28.8602 48.2543 31.0403L54.5644 24.7301C50.7543 21.1801 45.7742 19 39.8441 19C31.2439 19 23.8037 23.9301 20.1836 31.1203L27.5338 36.8204C29.2638 31.6203 34.1139 27.7502 39.8441 27.7502Z" fill="#EA4335"/>
</svg>
