<svg width="79" height="82" viewBox="0 0 79 82" fill="none" xmlns="http://www.w3.org/2000/svg">
<path d="M0 16C0 7.16344 7.16345 0 16 0H62.8C71.6366 0 78.8 7.16344 78.8 16V66C78.8 74.8366 71.6366 82 62.8 82H16C7.16343 82 0 74.8366 0 66V16Z" fill="#FFFC00"/>
<path d="M58.8384 51.6984C51.7472 48.2632 50.594 42.9632 50.5449 42.5706C50.4758 42.3333 50.4785 42.0808 50.5527 41.845C50.627 41.6091 50.7694 41.4006 50.9621 41.2457C51.4528 40.7795 53.7102 39.3809 54.3236 38.9392C55.3542 38.2276 55.8204 37.516 55.4769 36.4855C55.36 36.2178 55.1623 35.9934 54.9115 35.8438C54.6607 35.6941 54.3693 35.6269 54.0783 35.6512C53.8909 35.6274 53.7012 35.6274 53.5139 35.6512C52.3852 35.8966 51.281 36.4609 50.6431 36.6081H50.3977C50.0787 36.6081 49.9315 36.4609 49.9805 36.0683C50.1219 34.0997 50.1219 32.1235 49.9805 30.1549C49.9029 27.9232 49.033 25.7921 47.5268 24.1434C46.4276 23.0365 45.1202 22.158 43.68 21.5585C42.2398 20.9591 40.6952 20.6504 39.1352 20.6504C37.5752 20.6504 36.0306 20.9591 34.5904 21.5585C33.1502 22.158 31.8428 23.0365 30.7435 24.1434C29.228 25.7861 28.3567 27.9208 28.2898 30.1549C28.1482 32.1235 28.1482 34.0997 28.2898 36.0683C28.2898 36.4609 28.2898 36.6327 27.8482 36.6327H27.6028C26.9894 36.4855 25.8852 35.8966 24.7565 35.6512H24.1921C23.8971 35.6215 23.6003 35.6862 23.3445 35.8362C23.0887 35.9861 22.8871 36.2135 22.769 36.4855C22.45 37.3688 22.8917 38.1049 23.9222 38.9392C24.5602 39.3809 26.7931 40.7549 27.3084 41.2211C27.4987 41.3829 27.6374 41.597 27.7072 41.8369C27.777 42.0768 27.7748 42.3319 27.701 42.5706C27.701 42.9632 26.5232 48.2632 19.432 51.6984C19.0148 51.8947 18.3033 52.3364 19.432 53.0234C21.3949 54.1031 22.6954 53.9804 23.7014 54.6429C24.7074 55.3054 24.0449 56.385 24.6829 56.8021C25.3208 57.2193 27.7255 56.8022 30.6454 57.7346C33.0991 58.5443 34.5959 60.8507 38.9634 60.8507C43.331 60.8507 44.8523 58.5443 47.2815 57.7346C50.2014 56.7776 52.4588 57.342 53.244 56.8021C54.0292 56.2623 53.3667 55.1827 54.2255 54.6429C55.0843 54.1031 56.5319 54.1031 58.4949 53.0234C59.9671 52.3364 59.2555 51.9192 58.8384 51.6984Z" fill="white"/>
<path d="M61.9272 51.3058C61.6206 50.5513 61.043 49.9386 60.3077 49.5882C60.1927 49.5157 60.0691 49.458 59.9397 49.4164L59.3263 49.0974C57.375 48.0728 55.6935 46.6015 54.4188 44.8035C54.0946 44.3188 53.8075 43.8102 53.56 43.2822C53.518 43.1897 53.4963 43.0893 53.4963 42.9877C53.4963 42.8862 53.518 42.7858 53.56 42.6933C53.6304 42.5789 53.722 42.479 53.8299 42.3989L54.8605 41.7363L55.9156 41.0248C56.6913 40.5181 57.3381 39.8376 57.8049 39.0373C58.0718 38.5266 58.2273 37.9651 58.2612 37.3899C58.295 36.8146 58.2064 36.2387 58.0012 35.7002C57.698 34.9487 57.1697 34.3095 56.4888 33.8702C55.8078 33.4308 55.0076 33.213 54.198 33.2465C53.8268 33.251 53.457 33.2921 53.0938 33.3692H52.7994C52.8597 32.2822 52.8597 31.1928 52.7994 30.1058C52.6472 27.3693 51.5552 24.7692 49.7077 22.7447C48.8105 21.7515 47.7478 20.9213 46.567 20.291C44.3674 19.084 41.8989 18.4512 39.3899 18.4512C36.8809 18.4512 34.4124 19.084 32.2128 20.291C31.0413 20.9355 29.9809 21.764 29.0721 22.7447C27.2281 24.7714 26.1365 27.3702 25.9804 30.1058C25.9804 31.21 25.9804 32.3141 25.9804 33.3692H25.7105C25.3433 33.3328 24.9735 33.3328 24.6063 33.3692C23.794 33.3377 22.9914 33.556 22.307 33.9948C21.6226 34.4335 21.0891 35.0716 20.7786 35.8229C20.5734 36.3614 20.4848 36.9373 20.5186 37.5125C20.5525 38.0878 20.708 38.6493 20.9749 39.16C21.4341 39.9726 22.0821 40.6627 22.8642 41.172L23.9439 41.8591L24.9008 42.497C25.0249 42.5839 25.1328 42.6919 25.2198 42.816C25.2673 42.9112 25.292 43.0162 25.292 43.1227C25.292 43.2291 25.2673 43.3341 25.2198 43.4294C24.9956 43.9565 24.7159 44.4583 24.3855 44.9262C23.1163 46.7102 21.432 48.1587 19.4781 49.1466C18.3739 49.7355 17.2207 50.128 16.7545 51.4285C16.5746 51.9648 16.5529 52.5416 16.6922 53.0899C16.8314 53.6382 17.1257 54.1347 17.5397 54.5202C17.8891 54.8682 18.2855 55.1655 18.7175 55.4035C19.6261 55.8987 20.5896 56.2857 21.5883 56.5567C21.7902 56.6023 21.9816 56.6855 22.1526 56.8021C22.4962 57.0966 22.4471 57.5382 22.9133 58.2007C23.1327 58.5386 23.4162 58.8303 23.7476 59.0595C24.6989 59.6093 25.7917 59.8654 26.8883 59.7956C28.0686 59.7965 29.2425 59.9701 30.3726 60.3109C30.9876 60.5693 31.5788 60.8813 32.1392 61.2433C34.2955 62.7547 36.8672 63.5605 39.5003 63.5498C42.132 63.5509 44.7009 62.746 46.8614 61.2433C47.4166 60.887 47.9991 60.5752 48.6035 60.3109C49.7362 59.9819 50.9084 59.8086 52.0878 59.7956C53.1854 59.8777 54.2818 59.6207 55.2286 59.0595C55.6265 58.7884 55.9545 58.4269 56.1855 58.0044C56.529 57.4646 56.5045 57.072 56.8235 56.8021C56.9887 56.6913 57.1711 56.6084 57.3633 56.5567C58.3698 56.2858 59.3415 55.8988 60.2586 55.4035C60.7231 55.1628 61.139 54.8384 61.4855 54.4466C61.8539 54.0213 62.0916 53.4986 62.1699 52.9414C62.2483 52.3842 62.164 51.8162 61.9272 51.3058ZM58.7128 53.0234C56.7499 54.103 55.4494 54.0049 54.4434 54.6428C53.4374 55.2808 54.0753 56.385 53.4619 56.8267C52.8485 57.2683 50.4193 56.8266 47.4749 57.759C45.0212 58.5442 43.5244 60.8507 39.1813 60.8507C34.8383 60.8507 33.317 58.5687 30.8633 57.759C27.9434 56.7775 25.6615 57.3419 24.9008 56.8267C24.1402 56.3114 24.7781 55.1827 23.9193 54.6428C23.0605 54.103 21.5883 54.103 19.6499 53.0234C18.3985 52.3363 19.1101 51.9192 19.6499 51.7229C26.7411 48.2877 27.8698 42.9877 27.9188 42.5706C27.9876 42.3354 27.9871 42.0854 27.9175 41.8504C27.8478 41.6154 27.712 41.4055 27.5262 41.2456C27.011 40.7794 24.7536 39.3808 24.1401 38.9636C23.1096 38.2275 22.6434 37.516 22.9869 36.6327C23.0998 36.3604 23.2958 36.1308 23.547 35.9766C23.7982 35.8223 24.0916 35.7514 24.3855 35.7739C24.5728 35.7483 24.7626 35.7483 24.9499 35.7739C26.0786 36.0192 27.1827 36.5836 27.8207 36.7308H28.0661C28.4096 36.7308 28.5077 36.5591 28.5077 36.1665C28.3642 34.1979 28.3642 32.2216 28.5077 30.253C28.5811 28.0204 29.4515 25.8878 30.9614 24.2414C32.0233 23.0928 33.3205 22.1869 34.7645 21.5856C36.2085 20.9843 37.7653 20.7017 39.3286 20.7572C40.8959 20.7091 42.4557 20.9923 43.906 21.5885C45.3563 22.1847 46.6644 23.0804 47.7448 24.2169C49.2418 25.8714 50.1103 27.999 50.1985 30.2285C50.3401 32.1971 50.3401 34.1733 50.1985 36.1419C50.1985 36.559 50.1985 36.7063 50.6156 36.7063H50.8609C51.4989 36.5591 52.6031 35.9702 53.7318 35.7248H54.2962C54.5872 35.7004 54.8786 35.7677 55.1294 35.9173C55.3802 36.0669 55.5779 36.2914 55.6947 36.5591C56.0383 37.4424 55.6947 38.1785 54.5415 39.0128C53.9281 39.4544 51.6707 40.8285 51.1554 41.2947C50.97 41.4602 50.8349 41.6745 50.7654 41.9131C50.696 42.1518 50.6951 42.4051 50.7628 42.6442C50.7628 43.0368 51.9406 48.3368 59.0563 51.772C59.2526 51.9192 59.9642 52.3363 58.7128 53.0234Z" fill="black"/>
</svg>
