<svg width="79" height="82" viewBox="0 0 79 82" fill="none" xmlns="http://www.w3.org/2000/svg">
<path d="M0 16C0 7.16344 7.16345 0 16 0H62.8C71.6366 0 78.8 7.16344 78.8 16V66C78.8 74.8366 71.6366 82 62.8 82H16C7.16343 82 0 74.8366 0 66V16Z" fill="black"/>
<path d="M27.8211 46.9653C28.0607 44.9304 28.8744 43.7911 30.4078 42.6231C32.6019 41.0413 35.3426 41.9361 35.3426 41.9361V36.628C36.0089 36.6105 36.6754 36.651 37.3345 36.749V43.5801C37.3345 43.5801 34.5946 42.6853 32.4005 44.2679C30.8679 45.4351 30.0526 46.5752 29.8138 48.6101C29.8063 49.7151 30.0085 51.1595 30.9395 52.4084C30.7093 52.2874 30.4747 52.1494 30.2356 51.9946C28.1847 50.5821 27.8111 48.4629 27.8211 46.9653ZM48.6509 26.8133C47.1416 25.117 46.5708 23.4043 46.3644 22.2012H48.2631C48.2631 22.2012 47.8846 25.3558 50.6436 28.4581L50.6818 28.4998C49.9382 28.02 49.2563 27.4538 48.6509 26.8133ZM57.7973 31.6225V38.3161C57.7973 38.3161 55.3745 38.2188 53.5814 37.7509C51.0779 37.0966 49.4687 36.0931 49.4687 36.0931C49.4687 36.0931 48.3571 35.3774 48.2673 35.3275V49.1499C48.2673 49.9196 48.0618 51.8416 47.4353 53.4447C46.6174 55.5418 45.3552 56.9183 45.1231 57.1996C45.1231 57.1996 43.588 59.0603 40.8797 60.3133C38.4386 61.4437 36.2953 61.415 35.6546 61.4437C35.6546 61.4437 31.9496 61.5942 28.6156 59.3719C27.8947 58.8821 27.2217 58.3274 26.6055 57.7149L26.6221 57.7272C29.9569 59.9494 33.6611 59.7989 33.6611 59.7989C34.3025 59.7703 36.4459 59.7989 38.8862 58.6686C41.5919 57.4155 43.1295 55.5548 43.1295 55.5548C43.3592 55.2735 44.6272 53.897 45.4417 51.7991C46.0666 50.1968 46.2738 48.274 46.2738 47.5043V33.6836C46.3636 33.7343 47.4744 34.4499 47.4744 34.4499C47.4744 34.4499 49.0843 35.4543 51.5879 36.1078C53.3818 36.5756 55.8038 36.673 55.8038 36.673V31.4278C56.6325 31.6184 57.3389 31.6699 57.7973 31.6225Z" fill="#FD355A"/>
<path d="M55.8088 31.4278V36.6713C55.8088 36.6713 53.3868 36.574 51.5929 36.1062C49.0894 35.4519 47.4794 34.4483 47.4794 34.4483C47.4794 34.4483 46.3686 33.7326 46.2788 33.6819V47.506C46.2788 48.2756 46.0733 50.1985 45.4467 51.8007C44.6289 53.8986 43.3667 55.2751 43.1345 55.5565C43.1345 55.5565 41.5986 57.4172 38.8912 58.6702C36.4509 59.8005 34.3076 59.7719 33.6661 59.8005C33.6661 59.8005 29.9619 59.951 26.6271 57.7288L26.6105 57.7165C26.2584 57.3669 25.927 56.9977 25.6179 56.6107C24.5537 55.28 23.9014 53.7064 23.7375 53.2574C23.7372 53.2555 23.7372 53.2536 23.7375 53.2517C23.4737 52.4714 22.9196 50.5976 22.9953 48.7827C23.1293 45.5806 24.2276 43.6152 24.5179 43.1229C25.287 41.7802 26.2872 40.5789 27.4741 39.5724C28.5215 38.7039 29.7087 38.0129 30.9869 37.5277C32.3688 36.958 33.8485 36.6526 35.3468 36.628V41.9361C35.3468 41.9361 32.6061 41.0446 30.4128 42.6231C28.8794 43.7911 28.0657 44.9304 27.8261 46.9653C27.8161 48.4629 28.1897 50.5821 30.2389 51.9954C30.478 52.1508 30.7126 52.2887 30.9428 52.4092C31.3009 52.8865 31.7366 53.3024 32.2325 53.6402C34.2343 54.9398 35.9117 55.0306 38.0567 54.1865C39.4869 53.6222 40.5636 52.3503 41.0628 50.9411C41.3765 50.0611 41.3723 49.1753 41.3723 48.2592V22.2012H46.3645C46.5708 23.4043 47.1416 25.117 48.6509 26.8133C49.2563 27.4538 49.9383 28.02 50.6819 28.4998C50.9015 28.7329 52.0247 29.8853 53.4667 30.5928C54.2122 30.9584 54.9981 31.2386 55.8088 31.4278Z" fill="white"/>
<path d="M21.75 51.625V51.6291L21.8739 51.9734C21.8596 51.9333 21.8136 51.8115 21.75 51.625Z" fill="#33F3ED"/>
<path d="M30.9866 37.5269C29.7084 38.0121 28.5212 38.7031 27.4738 39.5716C26.2865 40.5804 25.2866 41.7842 24.5185 43.1295C24.2281 43.6202 23.1298 45.5872 22.9959 48.7893C22.9201 50.6042 23.4743 52.478 23.738 53.2582C23.7377 53.2601 23.7377 53.2621 23.738 53.264C23.9044 53.7089 24.5542 55.2825 25.6184 56.6173C25.9275 57.0043 26.2589 57.3735 26.611 57.7231C25.4829 56.9562 24.4769 56.029 23.6257 54.9717C22.5707 53.6525 21.9201 52.0952 21.7503 51.6355C21.7501 51.6323 21.7501 51.629 21.7503 51.6257V51.62C21.4857 50.8406 20.9299 48.9659 21.0073 47.1486C21.1413 43.9465 22.2395 41.9811 22.5299 41.4888C23.2978 40.1434 24.2978 38.9395 25.4853 37.9309C26.5325 37.0621 27.7197 36.3711 28.9981 35.8862C29.7955 35.561 30.6262 35.321 31.4759 35.1706C32.7563 34.9508 34.0641 34.9318 35.3506 35.1141V36.6272C33.851 36.6513 32.3698 36.9567 30.9866 37.5269Z" fill="#33F3ED"/>
<path d="M46.3664 22.2003H41.3742V48.2592C41.3742 49.1752 41.3742 50.0585 41.0647 50.941C40.5605 52.3494 39.488 53.6213 38.0586 54.1856C35.9128 55.0329 34.2354 54.9389 32.2344 53.6393C31.7376 53.3031 31.3008 52.8885 30.9414 52.4124C32.6462 53.3064 34.1722 53.2908 36.0625 52.5449C37.4911 51.9806 38.5653 50.7087 39.0678 49.2995C39.3823 48.4195 39.3782 47.5337 39.3782 46.6185V20.5547H46.2715C46.2715 20.5547 46.1941 21.2025 46.3664 22.2003ZM55.8065 29.9768V31.4269C54.9973 31.2375 54.2128 30.9573 53.4685 30.5919C52.0266 29.8844 50.9034 28.732 50.6837 28.4989C50.9386 28.6634 51.2031 28.813 51.4758 28.9471C53.2289 29.8075 54.9554 30.0643 55.8065 29.9768Z" fill="#33F3ED"/>
</svg>
