<svg width="79" height="82" viewBox="0 0 79 82" fill="none" xmlns="http://www.w3.org/2000/svg">
<path d="M0 16C0 7.16344 7.16345 0 16 0H62.8C71.6366 0 78.8 7.16344 78.8 16V66C78.8 74.8366 71.6366 82 62.8 82H16C7.16343 82 0 74.8366 0 66V16Z" fill="black"/>
<path d="M19.4958 21.8691L34.9393 42.9722L19.3984 60.13H22.8963L36.5026 45.1077L47.4958 60.13H59.3984L43.0856 37.8402L57.5511 21.8691H54.0532L41.523 35.7039L31.3984 21.8691H19.4958ZM24.6396 24.502H30.1076L54.2539 57.4971H48.7859L24.6396 24.502Z" fill="white"/>
</svg>
