<svg width="32" height="32" viewBox="0 0 32 32" fill="none" xmlns="http://www.w3.org/2000/svg">
<circle cx="16" cy="16" r="16" fill="white" fill-opacity="0.16"/>
<path d="M16 10C13.799 10 13.527 10.009 12.685 10.048C11.845 10.087 11.268 10.222 10.76 10.42C10.235 10.624 9.789 10.898 9.344 11.344C8.898 11.789 8.624 12.235 8.42 12.76C8.222 13.268 8.087 13.845 8.048 14.685C8.009 15.527 8 15.799 8 18C8 20.201 8.009 20.473 8.048 21.315C8.087 22.155 8.222 22.732 8.42 23.24C8.624 23.765 8.898 24.211 9.344 24.656C9.789 25.102 10.235 25.376 10.76 25.58C11.268 25.778 11.845 25.913 12.685 25.952C13.527 25.991 13.799 26 16 26C18.201 26 18.473 25.991 19.315 25.952C20.155 25.913 20.732 25.778 21.24 25.58C21.765 25.376 22.211 25.102 22.656 24.656C23.102 24.211 23.376 23.765 23.58 23.24C23.778 22.732 23.913 22.155 23.952 21.315C23.991 20.473 24 20.201 24 18C24 15.799 23.991 15.527 23.952 14.685C23.913 13.845 23.778 13.268 23.58 12.76C23.376 12.235 23.102 11.789 22.656 11.344C22.211 10.898 21.765 10.624 21.24 10.42C20.732 10.222 20.155 10.087 19.315 10.048C18.473 10.009 18.201 10 16 10ZM16 11.441C18.163 11.441 18.417 11.449 19.249 11.488C20.018 11.524 20.436 11.655 20.715 11.764C21.083 11.908 21.346 12.08 21.621 12.355C21.897 12.63 22.068 12.893 22.212 13.261C22.321 13.54 22.452 13.958 22.488 14.727C22.527 15.559 22.535 15.813 22.535 17.976C22.535 20.139 22.527 20.393 22.485 21.225C22.446 21.994 22.315 22.412 22.206 22.691C22.058 23.059 21.89 23.322 21.615 23.597C21.34 23.872 21.077 24.044 20.709 24.188C20.43 24.297 20.009 24.428 19.24 24.464C18.405 24.503 18.154 24.511 15.988 24.511C13.822 24.511 13.571 24.503 12.736 24.461C11.967 24.422 11.546 24.291 11.267 24.182C10.896 24.034 10.633 23.866 10.358 23.591C10.083 23.316 9.915 23.053 9.768 22.685C9.659 22.406 9.528 21.985 9.492 21.216C9.457 20.378 9.448 20.13 9.448 17.964C9.448 15.798 9.457 15.547 9.495 14.712C9.534 13.943 9.665 13.522 9.774 13.243C9.918 12.872 10.09 12.609 10.365 12.334C10.64 12.059 10.903 11.891 11.271 11.744C11.55 11.635 11.968 11.504 12.737 11.465C13.572 11.43 13.823 11.421 15.986 11.421L16 11.441ZM16 13.892C13.699 13.892 11.832 15.759 11.832 18.06C11.832 20.361 13.699 22.228 16 22.228C18.301 22.228 20.168 20.361 20.168 18.06C20.168 15.759 18.301 13.892 16 13.892ZM16 20.786C14.495 20.786 13.274 19.565 13.274 18.06C13.274 16.555 14.495 15.334 16 15.334C17.505 15.334 18.726 16.555 18.726 18.06C18.726 19.565 17.505 20.786 16 20.786ZM21.102 13.728C21.102 14.258 20.673 14.687 20.143 14.687C19.613 14.687 19.184 14.258 19.184 13.728C19.184 13.198 19.613 12.769 20.143 12.769C20.673 12.769 21.102 13.198 21.102 13.728Z" fill="white"/>
</svg>
