<svg width="32" height="32" viewBox="0 0 32 32" fill="none" xmlns="http://www.w3.org/2000/svg">
<path d="M32 16C32 7.16344 24.8366 0 16 0C7.16344 0 0 7.16344 0 16C0 24.8366 7.16344 32 16 32C24.8366 32 32 24.8366 32 16Z" fill="white" fill-opacity="0.16"/>
<g clip-path="url(#clip0_19821_7400)">
<mask id="mask0_19821_7400" style="mask-type:luminance" maskUnits="userSpaceOnUse" x="6" y="9" width="20" height="14">
<path d="M8.15146 17.8789C8.15146 14.6547 9.7651 11.3577 11.6886 11.3577C12.7302 11.3577 13.6008 11.957 14.9342 13.8588C13.6681 15.7935 12.9011 17.0069 12.9011 17.0069C11.2146 19.6408 10.6311 20.2312 9.69209 20.2312C8.75308 20.2312 8.15146 19.386 8.15146 17.8789ZM19.2665 16.6754L18.1002 14.7375C17.7846 14.2261 17.4821 13.7562 17.1903 13.3253C18.2415 11.709 19.1086 10.9036 20.1398 10.9036C22.2822 10.9036 23.9961 14.0461 23.9961 17.9061C23.9961 19.3775 23.5124 20.2312 22.51 20.2312C21.5077 20.2312 21.0905 19.5992 19.2665 16.6754ZM16.2161 11.9838C14.63 9.97179 13.3035 9.20508 11.7161 9.20508C8.47963 9.20508 6 13.4013 6 17.8424C6 20.6217 7.34958 22.3746 9.61016 22.3746C11.2372 22.3746 12.4073 21.6104 14.4875 17.9878C14.4875 17.9878 15.3546 16.4623 15.9511 15.4112C16.1602 15.7475 16.3798 16.1092 16.6116 16.4982L17.587 18.1331C19.4872 21.3009 20.546 22.3746 22.4644 22.3746C24.6666 22.3746 25.8922 20.5977 25.8922 17.7607C25.8922 13.1104 23.3566 9.20508 20.2765 9.20508C18.6454 9.20508 17.3704 10.429 16.2161 11.9838Z" fill="white"/>
</mask>
<g mask="url(#mask0_19821_7400)">
<mask id="mask1_19821_7400" style="mask-type:luminance" maskUnits="userSpaceOnUse" x="6" y="9" width="20" height="14">
<path d="M25.8922 9.20508H6V22.3746H25.8922V9.20508Z" fill="white"/>
</mask>
<g mask="url(#mask1_19821_7400)">
<mask id="mask2_19821_7400" style="mask-type:luminance" maskUnits="userSpaceOnUse" x="6" y="9" width="20" height="14">
<path d="M25.8922 9.20508H6V22.3746H25.8922V9.20508Z" fill="white"/>
</mask>
<g mask="url(#mask2_19821_7400)">
<rect x="5.99219" y="9.20312" width="19.9058" height="13.1752" fill="white"/>
</g>
</g>
</g>
<mask id="mask3_19821_7400" style="mask-type:luminance" maskUnits="userSpaceOnUse" x="11" y="9" width="8" height="8">
<path d="M11.6875 11.3575C13.1096 11.3575 14.2128 12.4746 16.6105 16.4982L16.7567 16.7432L18.0991 14.7374C15.5705 10.6404 13.887 9.20508 11.715 9.20508L11.6877 11.3577L11.6875 11.3575Z" fill="white"/>
</mask>
<g mask="url(#mask3_19821_7400)">
<path d="M15.7399 6.12539L8.03906 11.9805L14.0481 19.8247L21.7489 13.9696L15.7399 6.12539Z" fill="white"/>
</g>
</g>
<defs>
<clipPath id="clip0_19821_7400">
<rect width="20" height="13.75" fill="white" transform="translate(6 8.625)"/>
</clipPath>
</defs>
</svg>
