<svg width="32" height="32" viewBox="0 0 32 32" fill="none" xmlns="http://www.w3.org/2000/svg">
<g clip-path="url(#clip0_19821_7385)">
<path d="M0 16C0 19.1645 0.938385 22.2579 2.69649 24.8891C4.45459 27.5203 6.95344 29.5711 9.87706 30.7821C12.8007 31.9931 16.0177 32.3099 19.1214 31.6926C22.2251 31.0752 25.0761 29.5513 27.3137 27.3137C29.5513 25.076 31.0752 22.2251 31.6926 19.1214C32.3099 16.0177 31.9931 12.8007 30.7821 9.87708C29.5711 6.95346 27.5203 4.45457 24.8891 2.69647C22.2579 0.93837 19.1645 0 16 0C11.7565 0 7.68688 1.6857 4.68629 4.68628C1.68571 7.68686 0 11.7565 0 16Z" fill="white" fill-opacity="0.16"/>
<path d="M24.0108 20.4192C21.1208 19.0192 20.6508 16.8592 20.6308 16.6992C20.6026 16.6024 20.6037 16.4995 20.634 16.4034C20.6643 16.3073 20.7223 16.2223 20.8008 16.1592C21.0008 15.9692 21.9208 15.3992 22.1708 15.2192C22.5908 14.9292 22.7808 14.6392 22.6408 14.2192C22.5932 14.1101 22.5126 14.0186 22.4104 13.9576C22.3082 13.8967 22.1894 13.8692 22.0708 13.8792C21.9945 13.8695 21.9172 13.8695 21.8408 13.8792C21.3808 13.9792 20.9308 14.2092 20.6708 14.2692H20.5708C20.4408 14.2692 20.3808 14.2092 20.4008 14.0492C20.4584 13.2469 20.4584 12.4415 20.4008 11.6392C20.3691 10.7296 20.0146 9.8611 19.4008 9.18918C18.9528 8.73807 18.42 8.38005 17.833 8.13574C17.2461 7.89143 16.6166 7.76562 15.9808 7.76562C15.345 7.76562 14.7155 7.89143 14.1286 8.13574C13.5416 8.38005 13.0088 8.73807 12.5608 9.18918C11.9432 9.85868 11.5881 10.7287 11.5608 11.6392C11.5031 12.4415 11.5031 13.2469 11.5608 14.0492C11.5608 14.2092 11.5608 14.2792 11.3808 14.2792H11.2808C11.0308 14.2192 10.5808 13.9792 10.1208 13.8792H9.89081C9.77057 13.8671 9.6496 13.8934 9.54535 13.9546C9.4411 14.0157 9.35896 14.1083 9.31081 14.2192C9.18081 14.5792 9.36081 14.8792 9.78081 15.2192C10.0408 15.3992 10.9508 15.9592 11.1608 16.1492C11.2384 16.2151 11.2949 16.3024 11.3234 16.4001C11.3518 16.4979 11.3509 16.6019 11.3208 16.6992C11.3208 16.8592 10.8408 19.0192 7.95081 20.4192C7.78081 20.4992 7.49081 20.6792 7.95081 20.9592C8.75081 21.3992 9.28081 21.3492 9.69081 21.6192C10.1008 21.8892 9.83081 22.3292 10.0908 22.4992C10.3508 22.6692 11.3308 22.4992 12.5208 22.8792C13.5208 23.2092 14.1308 24.1492 15.9108 24.1492C17.6908 24.1492 18.3108 23.2092 19.3008 22.8792C20.4908 22.4892 21.4108 22.7192 21.7308 22.4992C22.0508 22.2792 21.7808 21.8392 22.1308 21.6192C22.4808 21.3992 23.0708 21.3992 23.8708 20.9592C24.4708 20.6792 24.1808 20.5092 24.0108 20.4192Z" fill="white"/>
</g>
<defs>
<clipPath id="clip0_19821_7385">
<rect width="32" height="32" fill="white"/>
</clipPath>
</defs>
</svg>
