<svg width="32" height="32" viewBox="0 0 32 32" fill="none" xmlns="http://www.w3.org/2000/svg">
<g clip-path="url(#clip0_19821_7389)">
<circle cx="16" cy="16" r="16" fill="white" fill-opacity="0.16"/>
<g clip-path="url(#clip1_19821_7389)">
<path d="M23.9964 14.5697C23.8484 14.5841 23.6996 14.5916 23.5509 14.5923C21.9191 14.5925 20.3972 13.7699 19.5034 12.4047V19.8537C19.5034 22.8944 17.0385 25.3593 13.9978 25.3593C10.9572 25.3593 8.49219 22.8944 8.49219 19.8538C8.49219 16.8133 10.9571 14.3483 13.9977 14.3483C14.1127 14.3483 14.225 14.3586 14.338 14.3658V17.0788C14.225 17.0653 14.114 17.0447 13.9977 17.0447C12.4458 17.0447 11.1878 18.3027 11.1878 19.8546C11.1878 21.4065 12.4458 22.6645 13.9977 22.6645C15.5496 22.6645 16.9206 21.4416 16.9206 19.8895L16.9477 7.23828H19.5433C19.788 9.56584 21.6648 11.3839 23.9989 11.5545V14.5698" fill="white"/>
</g>
</g>
<defs>
<clipPath id="clip0_19821_7389">
<rect width="32" height="32" fill="white"/>
</clipPath>
<clipPath id="clip1_19821_7389">
<rect width="15.5067" height="18.1211" fill="white" transform="translate(8.49219 7.23828)"/>
</clipPath>
</defs>
</svg>
